<?xml version="1.0" encoding="UTF-8"?>
<svg width="21px" height="17px" viewBox="0 0 21 17" version="1.1" xmlns="http://www.w3.org/2000/svg" xmlns:xlink="http://www.w3.org/1999/xlink">
    <!-- Generator: sketchtool 48.2 (47327) - http://www.bohemiancoding.com/sketch -->
    <title>7D9F03BE-5B64-48BC-850C-439B5A798A11</title>
    <desc>Created with sketchtool.</desc>
    <defs></defs>
    <g id="news-list-copy-6" stroke="none" stroke-width="1" fill="none" fill-rule="evenodd" transform="translate(-1097.000000, -338.000000)">
        <path d="M1115.52546,340.688209 C1116.41503,340.157117 1117.09821,339.315985 1117.41983,338.313865 C1116.5874,338.805705 1115.66534,339.162802 1114.68397,339.355314 C1113.89809,338.521222 1112.77831,338 1111.53923,338 C1109.15971,338 1107.23069,339.921603 1107.23069,342.291586 C1107.23069,342.628023 1107.26879,342.955509 1107.34223,343.269604 C1103.76157,343.090635 1100.58695,341.38205 1098.46199,338.785582 C1098.09106,339.419434 1097.87867,340.156658 1097.87867,340.943158 C1097.87867,342.432068 1098.63927,343.745681 1099.79531,344.515348 C1099.08909,344.493082 1098.42473,344.299958 1097.84387,343.978517 C1097.84356,343.996422 1097.84349,344.014403 1097.84349,344.03246 C1097.84349,346.111838 1099.3286,347.846438 1101.29955,348.240721 C1100.93799,348.338737 1100.55738,348.39115 1100.16448,348.39115 C1099.8868,348.39115 1099.61695,348.364293 1099.35387,348.314253 C1099.90216,350.019241 1101.4932,351.260089 1103.3785,351.29475 C1101.90399,352.445769 1100.04634,353.131804 1098.02776,353.131804 C1097.68003,353.131804 1097.33706,353.111528 1097,353.071893 C1098.90674,354.289556 1101.17135,355 1103.60441,355 C1111.52917,355 1115.86267,348.46055 1115.86267,342.789241 C1115.86267,342.603156 1115.85844,342.418066 1115.85022,342.234047 C1116.69195,341.628964 1117.42236,340.87307 1118,340.012427 C1117.22733,340.353761 1116.39706,340.584531 1115.52546,340.688209 Z" id="footer-twitter" fill="#C8C8C8"></path>
    </g>
</svg>