<?xml version="1.0" encoding="UTF-8"?>
<svg width="19px" height="19px" viewBox="0 0 19 19" version="1.1" xmlns="http://www.w3.org/2000/svg" xmlns:xlink="http://www.w3.org/1999/xlink">
    <!-- Generator: sketchtool 48.2 (47327) - http://www.bohemiancoding.com/sketch -->
    <title>9D8886A9-F5E1-4164-A7DE-6F3FF04655DE</title>
    <desc>Created with sketchtool.</desc>
    <defs></defs>
    <g id="news-list-copy-6" stroke="none" stroke-width="1" fill="none" fill-rule="evenodd" transform="translate(-1097.000000, -292.000000)">
        <path d="M1114.95138,292 L1098.04862,292 C1097.46935,292 1097,292.469421 1097,293.048615 L1097,309.951314 C1097,310.530437 1097.46935,311 1098.04862,311 L1107.1485,311 L1107.1485,303.642185 L1104.67246,303.642185 L1104.67246,300.77469 L1107.1485,300.77469 L1107.1485,298.66002 C1107.1485,296.205991 1108.64733,294.869702 1110.83655,294.869702 C1111.88517,294.869702 1112.7865,294.947725 1113.04919,294.982607 L1113.04919,297.547264 L1111.53079,297.547976 C1110.34021,297.547976 1110.10963,298.113715 1110.10963,298.943922 L1110.10963,300.77469 L1112.94917,300.77469 L1112.57941,303.642185 L1110.10963,303.642185 L1110.10963,311 L1114.95138,311 C1115.53043,311 1116,310.530437 1116,309.951314 L1116,293.048615 C1116,292.469421 1115.53043,292 1114.95138,292" id="footer-fb" fill="#C8C8C8"></path>
    </g>
</svg>