<?xml version="1.0" encoding="utf-8"?>
<!-- Generator: Adobe Illustrator 22.1.0, SVG Export Plug-In . SVG Version: 6.00 Build 0)  -->
<svg version="1.1" id="Layer_1" xmlns="http://www.w3.org/2000/svg" xmlns:xlink="http://www.w3.org/1999/xlink" x="0px" y="0px"
	 viewBox="0 0 27 21" style="enable-background:new 0 0 27 21;" xml:space="preserve">
<style type="text/css">
	.st0{fill:#001521;}
</style>
<title>6DB5BAB8-2D6C-4137-99F4-0376C27A7BD8</title>
<desc>Created with sketchtool.</desc>
<g id="approach-tab1" transform="translate(-936.000000, -581.000000)">
	<path id="value-green" class="st0" d="M962.5,591.3l-3.1-6.6h0.9c0.5,0,0.9-0.4,0.9-0.9c0-0.5-0.4-0.9-0.9-0.9h-8.2
		c-0.4-1.2-1.5-1.9-2.7-1.9c-1.2,0-2.3,0.8-2.7,1.9h-8.2c-0.5,0-0.9,0.4-0.9,0.9c0,0.5,0.4,0.9,0.9,0.9h0.9l-3.1,6.6
		c-0.3,0.1-0.5,0.4-0.5,0.7c0,1.3,0.5,2.6,1.4,3.5c0.9,0.9,2.2,1.5,3.5,1.5c2.7,0,4.9-2.2,4.9-5c0-0.3-0.2-0.6-0.5-0.7l-3.1-6.6h4.5
		c0.3,0.8,1,1.5,1.8,1.7v10.5c-2,0.4-3.4,2.2-3.4,4.2c0,0.2,0.1,0.5,0.2,0.6c0.2,0.2,0.4,0.3,0.6,0.2h6.9c0.2,0,0.5-0.1,0.6-0.2
		c0.2-0.2,0.3-0.4,0.2-0.6c0-2-1.4-3.8-3.4-4.2v-10.5c0.9-0.2,1.5-0.9,1.8-1.7h4.5l-3.1,6.6c-0.3,0.1-0.5,0.4-0.5,0.8
		c0,1.3,0.5,2.6,1.4,3.5c0.9,0.9,2.2,1.5,3.5,1.5c2.7,0,4.9-2.2,4.9-5C963,591.7,962.8,591.5,962.5,591.3z M960.6,591.2h-4.9
		l2.5-5.4L960.6,591.2z M940.9,585.8l2.5,5.4h-4.9L940.9,585.8z M940.9,595.2L940.9,595.2c-1.4,0-2.7-0.9-3.1-2.3h6.1
		C943.6,594.3,942.3,595.2,940.9,595.2L940.9,595.2z M951.9,600.2h-4.8c0.4-0.9,1.3-1.7,2.4-1.7
		C950.6,598.5,951.5,599.4,951.9,600.2z M949.5,584.8c-0.4,0-0.8-0.3-1-0.7c-0.2-0.4-0.1-0.9,0.2-1.2c0.3-0.3,0.8-0.4,1.2-0.2
		c0.4,0.2,0.7,0.6,0.7,1C950.6,584.3,950.1,584.8,949.5,584.8z M958.1,595.2c-1.4,0-2.7-0.9-3.1-2.3h6.1
		C960.7,594.3,959.5,595.2,958.1,595.2z"/>
</g>
</svg>
