<?xml version="1.0" encoding="UTF-8"?>
<svg width="27px" height="24px" viewBox="0 0 27 24" version="1.1" xmlns="http://www.w3.org/2000/svg" xmlns:xlink="http://www.w3.org/1999/xlink">
    <!-- Generator: sketchtool 48.2 (47327) - http://www.bohemiancoding.com/sketch -->
    <title>8ADDBBA4-FC44-4728-9DDB-CE6454321EFA</title>
    <desc>Created with sketchtool.</desc>
    <defs></defs>
    <g id="industry-focus-copy-3" stroke="none" stroke-width="1" fill="none" fill-rule="evenodd" transform="translate(-605.000000, -578.000000)">
        <path d="M630.8426,600.426561 L631.2278,600.426561 C632.2574,600.426561 632.2574,602 631.2278,602 L605.7722,602 C604.7426,602 604.7426,600.426561 605.7722,600.426561 L606.1574,600.426561 L606.1574,584.294125 C605.67212,583.637209 605.3852,582.819461 605.3852,581.934517 L605.3852,578.787638 C605.3852,578.352876 605.73116,578 606.1574,578 L630.8426,578 C631.26884,578 631.6148,578.352876 631.6148,578.787638 L631.6148,581.934517 C631.6148,582.819461 631.32788,583.637209 630.8426,584.294125 L630.8426,600.426561 Z M629.3,600.426561 L629.3,585.540392 C628.82192,585.754468 628.2974,585.869033 627.7574,585.869033 C626.5028,585.869033 625.3778,585.253611 624.6722,584.294125 C623.9648,585.253611 622.8398,585.869033 621.5852,585.869033 C620.3324,585.869033 619.2074,585.253611 618.5,584.294125 C617.7926,585.253611 616.6676,585.869033 615.4148,585.869033 C614.1602,585.869033 613.0352,585.253611 612.3278,584.294125 C611.6222,585.253611 610.49576,585.869033 609.2426,585.869033 C608.70116,585.869033 608.17808,585.754468 607.7,585.540392 L607.7,600.426561 L620.8148,600.426561 L620.8148,589.015912 C620.8148,588.581518 621.15932,588.23011 621.5852,588.23011 L627.3722,588.23011 C627.79808,588.23011 628.1426,588.581518 628.1426,589.015912 L628.1426,600.426561 L629.3,600.426561 Z M606.9278,579.573439 L606.9278,581.934517 C606.9278,583.236965 607.96568,584.295594 609.2426,584.295594 C610.51952,584.295594 611.5574,583.236965 611.5574,581.934517 L611.5574,579.573439 L606.9278,579.573439 Z M619.2722,579.573439 L619.2722,581.934517 C619.2722,583.236965 620.30828,584.295594 621.5852,584.295594 C622.86212,584.295594 623.9,583.236965 623.9,581.934517 L623.9,579.573439 L619.2722,579.573439 Z M625.4426,579.573439 L625.4426,581.934517 C625.4426,583.236965 626.48048,584.295594 627.7574,584.295594 C629.03288,584.295594 630.0722,583.236965 630.0722,581.934517 L630.0722,579.573439 L625.4426,579.573439 Z M613.1,581.934517 C613.1,583.236965 614.13788,584.295594 615.4148,584.295594 C616.69028,584.295594 617.7278,583.236965 617.7278,581.934517 L617.7278,579.573439 L613.1,579.573439 L613.1,581.934517 Z M622.3574,600.426561 L626.6,600.426561 L626.6,589.80355 L622.3574,589.80355 L622.3574,600.426561 Z M609.6278,597.672583 C609.20192,597.672583 608.8574,597.319706 608.8574,596.884945 L608.8574,589.015912 C608.8574,588.581518 609.20192,588.23011 609.6278,588.23011 L618.8852,588.23011 C619.31144,588.23011 619.6574,588.581518 619.6574,589.015912 L619.6574,596.884945 C619.6574,597.319706 619.31144,597.672583 618.8852,597.672583 L609.6278,597.672583 Z M618.1148,596.097307 L618.1148,589.80355 L610.4,589.80355 L610.4,596.097307 L618.1148,596.097307 Z" id="consumer-green" fill="#93B191"></path>
    </g>
</svg>