<?xml version="1.0" encoding="UTF-8"?>
<svg width="27px" height="27px" viewBox="0 0 27 27" version="1.1" xmlns="http://www.w3.org/2000/svg" xmlns:xlink="http://www.w3.org/1999/xlink">
    <!-- Generator: sketchtool 48.2 (47327) - http://www.bohemiancoding.com/sketch -->
    <title>839A3CB1-5D4D-41C1-8170-E6FBBD090727</title>
    <desc>Created with sketchtool.</desc>
    <defs></defs>
    <g id="industry-focus-copy-5" stroke="none" stroke-width="1" fill="none" fill-rule="evenodd" transform="translate(-804.000000, -577.000000)">
        <path d="M826.8908,586.3908 L825.6608,587.6204 L827.6704,589.6296 L821.8796,589.6296 L821.8796,586.1204 L818.3704,586.1204 L818.3704,580.3592 L820.3796,582.3688 L821.6092,581.1392 L817.5,577 L813.3908,581.1092 L814.6204,582.3392 L816.6296,580.3296 L816.6296,586.0892 L813.1204,586.0892 L813.1204,589.5984 L807.3592,589.5984 L809.3688,587.5892 L808.1392,586.3592 L804,590.5 L808.1092,594.6092 L809.3392,593.3796 L807.3296,591.3704 L813.0892,591.3704 L813.0892,594.8796 L816.5984,594.8796 L816.5984,600.6392 L814.5892,598.6296 L813.3592,599.8592 L817.5,604 L821.6092,599.8908 L820.3796,598.6608 L818.3704,600.6704 L818.3704,594.8796 L821.8796,594.8796 L821.8796,591.3704 L827.6392,591.3704 L825.6296,593.3796 L826.8592,594.6092 L831,590.5 L826.8908,586.3908 Z M820.1408,593.1408 L814.8592,593.1408 L814.8592,587.8592 L820.1092,587.8592 L820.1092,593.1408 L820.1408,593.1408 Z" id="distribution-green" fill="#93B191"></path>
    </g>
</svg>