<?xml version="1.0" encoding="UTF-8"?>
<svg width="15px" height="15px" viewBox="0 0 15 15" version="1.1" xmlns="http://www.w3.org/2000/svg" xmlns:xlink="http://www.w3.org/1999/xlink">
    <!-- Generator: sketchtool 48.2 (47327) - http://www.bohemiancoding.com/sketch -->
    <title>60B89B29-1165-4598-87F2-A86926D4CFB1</title>
    <desc>Created with sketchtool.</desc>
    <defs>
        <polygon id="path-1" points="0 0 14.9995 0 14.9995 14.9999167 0 14.9999167"></polygon>
    </defs>
    <g id="homev3a-copy" stroke="none" stroke-width="1" fill="none" fill-rule="evenodd" transform="translate(-151.000000, -3572.000000)">
        <g id="FSfooter-Copy" transform="translate(0.000000, 3521.000000)">
            <g id="linkedin-logo" transform="translate(151.000000, 51.000000)">
                <mask id="mask-2" fill="white">
                    <use xlink:href="#path-1"></use>
                </mask>
                <g id="Clip-2"></g>
                <path d="M12.7820833,12.7816667 L10.5575,12.7816667 L10.5575,9.30083333 C10.5575,8.47041667 10.5433333,7.4025 9.40166667,7.4025 C8.24375,7.4025 8.0675,8.3075 8.0675,9.24125 L8.0675,12.7816667 L5.84541667,12.7816667 L5.84541667,5.62333333 L7.97791667,5.62333333 L7.97791667,6.60208333 L8.00833333,6.60208333 C8.305,6.03916667 9.03083333,5.44583333 10.1133333,5.44583333 C12.3658333,5.44583333 12.7820833,6.92791667 12.7820833,8.85583333 L12.7820833,12.7816667 Z M3.33666667,4.64541667 C2.62208333,4.64541667 2.04583333,4.0675 2.04583333,3.355 C2.04583333,2.64291667 2.62208333,2.065 3.33666667,2.065 C4.04833333,2.065 4.62625,2.64291667 4.62625,3.355 C4.62625,4.0675 4.04833333,4.64541667 3.33666667,4.64541667 Z M2.2225,12.7816667 L4.44958333,12.7816667 L4.44958333,5.62333333 L2.2225,5.62333333 L2.2225,12.7816667 Z M13.89,0 L1.10666667,0 C0.49625,0 0,0.484166667 0,1.08166667 L0,13.9179167 C0,14.515 0.49625,15 1.10666667,15 L13.89,15 C14.5016667,15 14.9995833,14.515 14.9995833,13.9179167 L14.9995833,1.08166667 C14.9995833,0.484166667 14.5016667,0 13.89,0 Z" id="Fill-1" fill="#FFFFFF" mask="url(#mask-2)"></path>
            </g>
        </g>
    </g>
</svg>