<?xml version="1.0" encoding="UTF-8"?>
<svg width="173px" height="39px" viewBox="0 0 173 39" version="1.1" xmlns="http://www.w3.org/2000/svg" xmlns:xlink="http://www.w3.org/1999/xlink">
    <!-- Generator: sketchtool 48.2 (47327) - http://www.bohemiancoding.com/sketch -->
    <title>916CC4F9-8EA1-48CD-BBCC-41B87742A0CD</title>
    <desc>Created with sketchtool.</desc>
    <defs>
        <polygon id="path-1" points="0.39758037 0.101638776 127.956074 0.101638776 127.956074 35.550251 0.39758037 35.550251"></polygon>
        <polygon id="path-3" points="7.99076212e-05 0.233602041 38.5211469 0.233602041 38.5211469 38.6016827 7.99076212e-05 38.6016827"></polygon>
    </defs>
    <g id="homev3a-copy" stroke="none" stroke-width="1" fill="none" fill-rule="evenodd" transform="translate(-133.000000, -18.000000)">
        <g id="logo" transform="translate(133.000000, 18.000000)">
            <g id="Group-3" transform="translate(44.748268, 1.756353)">
                <mask id="mask-2" fill="white">
                    <use xlink:href="#path-1"></use>
                </mask>
                <g id="Clip-2"></g>
                <path d="M126.885751,35.258149 C127.541793,35.258149 127.956114,34.7591082 127.956114,34.1569959 C127.956114,33.5552816 127.490252,33.1597102 126.902931,33.1597102 C126.16059,33.1597102 125.849749,33.7789347 125.849749,34.2087306 C125.849749,34.6902612 126.16059,35.258149 126.885751,35.258149 Z M117.37155,34.6902612 C114.055784,34.6902612 112.06968,31.8524143 112.06968,28.2747612 C112.06968,23.9919245 114.331864,22.8911694 116.317569,22.8911694 C119.149894,22.8911694 121.377319,25.2821082 121.377319,29.134751 C121.377319,34.1056592 118.579754,34.6902612 117.37155,34.6902612 Z M116.64559,35.550251 C121.032118,35.550251 123.794924,32.4370163 123.794924,28.4984143 C123.794924,24.5594143 121.118019,22.065802 116.81859,22.065802 C111.638179,22.065802 109.686834,25.8667102 109.686834,28.8080265 C109.686834,31.8524143 111.689719,35.550251 116.64559,35.550251 Z M103.936682,35.550251 C105.041405,35.550251 106.353888,35.4300673 107.044689,35.1546796 C107.338349,35.0344959 107.40707,34.9485367 107.49377,34.6560367 C107.66637,34.0714347 107.873331,32.5751082 107.873331,32.3681694 C107.873331,32.2312714 107.838971,32.1106898 107.717911,32.1106898 C107.58007,32.1106898 107.54571,32.1795367 107.49377,32.4545265 C107.42465,32.7637408 107.200109,33.2627816 106.906449,33.5895061 C106.216047,34.380649 105.283525,34.5529653 103.746502,34.5529653 C101.432377,34.5529653 98.3071901,32.5233735 98.3071901,28.4295673 C98.3071901,26.7613224 98.6352109,25.127302 99.8957536,23.9748122 C100.655675,23.2871388 101.639737,22.9086796 103.142001,22.9086796 C104.730964,22.9086796 106.077807,23.373098 106.647548,23.9748122 C107.079449,24.4221184 107.30359,25.0238327 107.32077,25.5574959 C107.32077,25.7982612 107.35553,25.9355571 107.49377,25.9355571 C107.64919,25.9355571 107.68355,25.7982612 107.70073,25.5399857 C107.73549,25.196149 107.717911,24.2502 107.75267,23.6823122 C107.787031,23.0802 107.838971,22.8744551 107.838971,22.7363633 C107.838971,22.6332918 107.769851,22.5473327 107.58007,22.5302204 C107.061869,22.4784857 106.509308,22.3236796 105.852867,22.2377204 C105.058985,22.134251 104.420123,22.065802 103.349361,22.065802 C100.776336,22.065802 99.1362316,22.7538735 97.8928691,23.889251 C96.2347859,25.4022918 95.8724048,27.4322816 95.8724048,28.6014857 C95.8724048,30.2701286 96.3210861,32.196649 98.01313,33.6754653 C99.5849129,35.0344959 101.571017,35.550251 103.936682,35.550251 Z M81.7986751,34.4670061 C80.0027513,34.4670061 78.4833079,33.0908633 78.4833079,30.9406898 C78.4833079,29.5645469 79.0874095,28.7562918 79.6747305,28.3264959 C79.9679915,28.7562918 81.0735134,29.9947408 81.5225942,30.4762714 C81.9712755,30.957802 83.6289591,32.5751082 84.6306012,33.4347 C84.2678206,33.7789347 83.1279383,34.4670061 81.7986751,34.4670061 Z M76.4113032,31.7493429 C76.4113032,33.2452714 77.5164256,35.550251 81.2117536,35.550251 C83.5774187,35.550251 84.7340815,34.5012306 85.3042224,33.9854755 C86.7893055,35.1204551 87.4109868,35.3094857 89.3795111,35.3094857 L90.7091739,35.3094857 C91.0887351,35.3094857 91.2269753,35.258149 91.2269753,35.1546796 C91.2269753,35.0173837 91.1406751,35.0002714 90.9856543,35.0002714 C90.6396543,35.0002714 89.6903517,34.7244857 89.1377905,34.3981592 C88.6715296,34.1227714 87.8944279,33.6583531 86.7377651,32.7124041 C87.7218275,31.5603122 88.429809,29.9605163 88.429809,28.6357102 C88.429809,28.4295673 88.1709083,28.3264959 87.842488,28.2922714 C86.8756058,28.188802 86.1848044,28.1712918 85.7704834,28.1712918 C85.6322432,28.1712918 85.494003,28.2059143 85.494003,28.3436082 C85.494003,28.4470776 85.5978829,28.481302 85.7013633,28.481302 C85.960264,28.481302 86.3230446,28.5330367 86.5471855,28.7391796 C86.8064857,28.9628327 86.8756058,29.2724449 86.8756058,29.5303224 C86.8756058,30.5797408 86.3917651,31.6976082 86.0465642,32.1795367 C85.7185434,31.8866388 83.5945988,29.9772306 83.0072778,29.3070673 C81.6260746,27.7761184 80.1409915,26.3999755 80.1409915,24.7834653 C80.1409915,23.3213633 81.263294,22.8227204 81.9888552,22.8227204 C82.9557374,22.8227204 83.5602386,23.1836694 83.9054395,23.5963531 C84.2854002,24.0436592 84.4064603,24.5940367 84.4064603,25.0413429 C84.4064603,25.2996184 84.4236404,25.3676694 84.5267212,25.3676694 C84.6306012,25.3676694 84.6997212,25.3338429 84.7340815,25.0755673 C84.7860215,24.8176898 84.9246612,23.4419449 84.9246612,22.8744551 C84.9246612,22.6675163 84.9246612,22.5302204 84.6306012,22.426751 C84.1643402,22.2377204 83.3872386,22.065802 82.5414164,22.065802 C79.5364903,22.065802 78.3278875,23.8717408 78.3450677,25.2303735 C78.3626473,26.0044041 78.500488,26.7099857 79.2256497,27.672649 C78.1896473,28.1712918 76.4113032,29.7368633 76.4113032,31.7493429 Z M65.2557998,30.3218633 C65.2557998,31.9897102 65.2557998,33.3487408 65.1694995,34.0714347 C65.1179591,34.5700776 65.0144788,34.8625776 64.6688783,34.9310265 C64.5138575,34.965649 64.3064972,35.0002714 64.0475965,35.0002714 C63.8402363,35.0002714 63.7707166,35.0512102 63.7707166,35.1375673 C63.7707166,35.258149 63.8917767,35.3094857 64.1167166,35.3094857 C64.8071185,35.3094857 65.8950607,35.258149 66.2922016,35.258149 C66.7584626,35.258149 67.8460053,35.3094857 68.9858875,35.3094857 C69.1760677,35.3094857 69.3139083,35.258149 69.3139083,35.1375673 C69.3139083,35.0512102 69.2276081,35.0002714 69.0378275,35.0002714 C68.7785273,35.0002714 68.3989661,34.965649 68.1572455,34.9310265 C67.6390446,34.8625776 67.5183841,34.5529653 67.4664441,34.0885469 C67.397324,33.3487408 67.397324,31.9897102 67.397324,30.3218633 L67.397324,27.2941898 C67.397324,24.6799959 67.397324,24.1984653 67.4316843,23.6480878 C67.4664441,23.0459755 67.6046843,22.7538735 68.0705457,22.6675163 C68.2783055,22.6332918 68.4161462,22.6161796 68.5887467,22.6161796 C68.7613471,22.6161796 68.8648275,22.5815571 68.8648275,22.4442612 C68.8648275,22.3407918 68.7269868,22.3065673 68.5024464,22.3065673 C67.8460053,22.3065673 66.8275827,22.358302 66.395682,22.358302 C65.8950607,22.358302 64.8071185,22.3065673 64.1506774,22.3065673 C63.8745965,22.3065673 63.7363564,22.3407918 63.7363564,22.4442612 C63.7363564,22.5815571 63.8402363,22.6161796 64.0128367,22.6161796 C64.2197975,22.6161796 64.4447374,22.6332918 64.6341185,22.6846286 C65.0144788,22.7709857 65.1870792,23.0630878 65.2214395,23.6480878 C65.2557998,24.1984653 65.2557998,24.6799959 65.2557998,27.2941898 L65.2557998,30.3218633 Z M56.9673818,27.2941898 C56.9673818,24.6799959 56.9673818,24.1984653 57.001742,23.6480878 C57.0365018,23.0459755 57.174742,22.7538735 57.641003,22.6675163 C57.8479637,22.6332918 58.1240446,22.6161796 58.3142247,22.6161796 C58.521585,22.6161796 58.6250654,22.5815571 58.6250654,22.4613735 C58.6250654,22.3407918 58.5044048,22.3065673 58.2622848,22.3065673 C57.589063,22.3065673 56.3285203,22.358302 55.9137998,22.358302 C55.4475388,22.358302 54.3599961,22.3065673 53.5481346,22.3065673 C53.2892339,22.3065673 53.1681739,22.3407918 53.1681739,22.4613735 C53.1681739,22.5815571 53.2720538,22.6161796 53.4622339,22.6161796 C53.6863748,22.6161796 53.8937351,22.6332918 54.0315758,22.6675163 C54.6017166,22.788098 54.7399568,23.0630878 54.7743171,23.6480878 C54.8090769,24.1984653 54.8090769,24.6799959 54.8090769,27.2941898 L54.8090769,30.3218633 C54.8090769,31.903751 54.8090769,33.2627816 54.7227767,33.9854755 C54.653257,34.4841184 54.5669568,34.8625776 54.2217559,34.9310265 C54.0663356,34.965649 53.8593748,35.0002714 53.6000746,35.0002714 C53.3931139,35.0002714 53.3239938,35.0512102 53.3239938,35.1375673 C53.3239938,35.258149 53.4450538,35.3094857 53.6691947,35.3094857 C54.0143956,35.3094857 54.4634764,35.2752612 54.8606173,35.2752612 C55.2749383,35.258149 55.6548991,35.258149 55.8446797,35.258149 C56.5530607,35.258149 57.174742,35.2752612 57.9518436,35.3094857 C58.7285457,35.3269959 59.6263079,35.3612204 60.87007,35.3612204 C61.7678321,35.3612204 61.8541323,35.2752612 61.9580122,34.896802 C62.0958529,34.3981592 62.2169129,33.1083735 62.2169129,32.9185469 C62.2169129,32.7124041 62.1997328,32.6264449 62.0786727,32.6264449 C61.9404326,32.6264449 61.9060723,32.7295163 61.8884926,32.8843224 C61.8541323,33.2110469 61.6471716,33.6925776 61.4398113,33.9162306 C61.0079106,34.380649 60.3346889,34.3981592 59.4193471,34.3981592 C58.0725042,34.3981592 57.6238229,34.2775776 57.3297628,34.0197 C56.9673818,33.7100878 56.9673818,32.5233735 56.9673818,30.3218633 L56.9673818,27.2941898 Z M49.9910469,32.265098 C49.9910469,31.4051082 49.9910469,30.7174347 50.008227,30.2012816 C50.0258067,29.5991694 50.1984072,29.3070673 50.6646681,29.2207102 C50.8716289,29.1864857 50.9926889,29.1693735 51.1309291,29.1693735 C51.2515896,29.1693735 51.35507,29.134751 51.35507,29.0316796 C51.35507,28.8939857 51.2340099,28.8597612 51.0098691,28.8597612 C50.4401277,28.8597612 49.5247859,28.9114959 48.9894048,28.9114959 C48.4712039,28.9114959 47.3836612,28.8597612 46.4858991,28.8597612 C46.2441785,28.8597612 46.1231185,28.8939857 46.1231185,29.0316796 C46.1231185,29.134751 46.2265988,29.1693735 46.3820192,29.1693735 C46.6237397,29.1693735 46.9174002,29.1864857 47.0552409,29.2207102 C47.6253818,29.3412918 47.7808021,29.6162816 47.7983818,30.2012816 C47.8151624,30.7174347 47.8151624,31.3704857 47.8151624,32.2312714 L47.8151624,33.8473837 C47.8151624,34.1398837 47.7464418,34.3635367 47.4871416,34.4841184 C47.0728206,34.673149 46.4687189,34.673149 46.0196381,34.673149 C42.375451,34.673149 40.0101855,31.903751 40.0101855,28.2059143 C40.0101855,26.0903633 40.6318667,24.8005776 41.598749,23.9919245 C42.8077513,22.9946388 44.068294,22.9257918 45.0179961,22.9257918 C46.9693402,22.9257918 48.350943,23.7169347 48.8683448,24.2673122 C49.3174256,24.7488429 49.4041254,25.2996184 49.4556658,25.6947918 C49.472846,25.8320878 49.5076058,25.9184449 49.6286658,25.9184449 C49.7665065,25.9184449 49.8184464,25.8320878 49.8184464,25.5574959 C49.8184464,23.4073224 49.9391069,22.9257918 49.9391069,22.7363633 C49.9391069,22.6161796 49.9047467,22.5473327 49.6977859,22.5302204 C49.300645,22.5131082 48.6961439,22.4096388 48.3333633,22.3407918 C47.9877628,22.2719449 46.4687189,22.065802 45.2768968,22.065802 C43.8261739,22.065802 42.2899499,22.1859857 40.6318667,23.1836694 C39.0604834,24.1296184 37.6273402,26.0561388 37.6273402,28.8080265 C37.6273402,33.5552816 41.3742085,35.550251 45.6049176,35.550251 C46.95216,35.550251 48.6442039,35.3612204 49.7665065,34.7762204 C49.9738667,34.6560367 49.9910469,34.6214143 49.9910469,34.1569959 L49.9910469,32.265098 Z M29.3041624,34.6902612 C25.9883956,34.6902612 24.0026912,31.8524143 24.0026912,28.2747612 C24.0026912,23.9919245 26.264876,22.8911694 28.2505804,22.8911694 C31.0825065,22.8911694 33.3103309,25.2821082 33.3103309,29.134751 C33.3103309,34.1056592 30.5127651,34.6902612 29.3041624,34.6902612 Z M28.5786012,35.550251 C32.9647305,35.550251 35.727936,32.4370163 35.727936,28.4984143 C35.727936,24.5594143 33.0514303,22.065802 28.7516012,22.065802 C23.5711901,22.065802 21.619846,25.8667102 21.619846,28.8080265 C21.619846,31.8524143 23.6227305,35.550251 28.5786012,35.550251 Z M12.1915457,30.3218633 C12.1915457,31.903751 12.1915457,33.2627816 12.104846,33.9854755 C12.0357259,34.4841184 11.9498252,34.8625776 11.6042247,34.9310265 C11.4488044,34.965649 11.2418436,35.0002714 10.9825434,35.0002714 C10.7755827,35.0002714 10.7064626,35.0512102 10.7064626,35.1375673 C10.7064626,35.258149 10.8275226,35.3094857 11.0516635,35.3094857 C11.7424649,35.3094857 12.8304072,35.258149 13.2271485,35.258149 C13.6766289,35.258149 14.7645711,35.3094857 15.9040538,35.3094857 C16.0938344,35.3094857 16.2320746,35.258149 16.2320746,35.1375673 C16.2320746,35.0512102 16.1457744,35.0002714 15.9559938,35.0002714 C15.6966935,35.0002714 15.3167328,34.965649 15.0750122,34.9310265 C14.5572109,34.8625776 14.4537305,34.4841184 14.4017905,34.0025878 C14.3154903,33.2627816 14.3154903,31.903751 14.3154903,30.3218633 L14.3154903,23.4419449 C14.3154903,23.2525163 14.3670307,23.1490469 14.4537305,23.1148224 C14.6087513,23.0630878 14.8680515,23.0459755 15.1269522,23.0459755 C15.5240931,23.0459755 16.2320746,23.1490469 16.8537559,23.7169347 C17.8206381,24.5769245 17.8725781,25.7294143 17.8725781,26.2965061 C17.8725781,28.0515061 16.5257351,29.134751 15.5584533,29.134751 C15.1960723,29.134751 15.0750122,29.1864857 15.0750122,29.3241796 C15.0750122,29.4447612 15.1960723,29.4618735 15.2823725,29.4789857 C15.3686727,29.496098 15.5584533,29.496098 15.6451531,29.496098 C18.0971185,29.496098 19.8930423,27.7761184 19.8930423,25.3338429 C19.8930423,24.4221184 19.4096012,23.6480878 19.0296404,23.2871388 C18.75316,23.0292612 17.976458,22.3065673 15.8177536,22.3065673 C15.0234718,22.3065673 14.0218298,22.358302 13.3138483,22.358302 C12.8304072,22.358302 11.7424649,22.3065673 10.8275226,22.3065673 C10.5682224,22.3065673 10.4471624,22.3407918 10.4471624,22.4613735 C10.4471624,22.5815571 10.5510423,22.6161796 10.7408229,22.6161796 C10.9825434,22.6161796 11.2762039,22.6332918 11.4144441,22.6675163 C11.9841855,22.788098 12.1224256,23.0630878 12.1567859,23.6480878 C12.1915457,24.1984653 12.1915457,24.6799959 12.1915457,27.2941898 L12.1915457,30.3218633 Z M3.71294758,35.550251 C4.62788984,35.550251 5.59517159,35.3954449 6.45857344,34.8450673 C7.70153649,34.0368122 8.08149723,32.850098 8.08149723,31.8524143 C8.08149723,30.2183939 7.33915543,29.0316796 5.24957113,27.4665061 L4.76613002,27.1055571 C3.33298684,26.0219143 2.93584596,25.4194041 2.93584596,24.6286592 C2.93584596,23.5963531 3.71294758,22.8569449 4.99067044,22.8569449 C6.11337252,22.8569449 6.61399376,23.373098 6.87289446,23.6998224 C7.23567506,24.1467306 7.32157575,24.6799959 7.32157575,24.8352 C7.32157575,25.0413429 7.3735157,25.1448122 7.49457575,25.1448122 C7.6324164,25.1448122 7.68435635,25.0067204 7.68435635,24.6286592 C7.68435635,23.2871388 7.75347644,22.788098 7.75347644,22.5648429 C7.75347644,22.4442612 7.66717621,22.3925265 7.51175589,22.358302 C7.06267506,22.2377204 6.33751339,22.065802 5.21521085,22.065802 C2.81478591,22.065802 1.2262224,23.4244347 1.2262224,25.3167306 C1.2262224,26.7099857 1.88226397,27.9138122 3.78206767,29.3930265 L4.57634942,30.0118531 C6.00949261,31.1301184 6.2683933,31.9212612 6.2683933,32.7637408 C6.2683933,33.6754653 5.50887136,34.7244857 3.95426859,34.7244857 C2.883906,34.7244857 1.86508383,34.2600673 1.48512309,32.9877918 C1.39882286,32.6956898 1.33010231,32.3339449 1.33010231,32.1106898 C1.33010231,31.9729959 1.31252263,31.8177918 1.15710231,31.8177918 C1.01926166,31.8177918 0.967321709,32.0072204 0.949742032,32.265098 C0.932561894,32.5404857 0.863841339,33.5723939 0.863841339,34.5183429 C0.863841339,34.896802 0.915381755,34.9827612 1.19186212,35.1029449 C1.93420393,35.4300673 2.71130554,35.550251 3.71294758,35.550251 Z M78.8001416,3.92005714 L78.851682,3.92005714 C79.1629222,4.24678163 81.079906,6.3969551 82.9589337,8.25462857 C84.7548575,10.0259449 86.9651023,12.2791898 88.0502478,13.311098 C88.2396289,13.5005265 88.4473887,13.6895571 88.6375688,13.6895571 C88.7925896,13.6895571 88.8617097,13.534751 88.8617097,13.1562918 L89.0518898,2.30314898 C89.06907,1.34008776 89.2069106,0.978740816 89.6903517,0.841444898 C89.897712,0.789710204 90.0359522,0.789710204 90.2085527,0.789710204 C90.4159129,0.789710204 90.5193933,0.73797551 90.5193933,0.634904082 C90.5193933,0.497210204 90.3467928,0.480097959 90.1222524,0.480097959 C89.2760307,0.480097959 88.6199891,0.531832653 88.4302085,0.531832653 C88.0674279,0.531832653 87.2387859,0.480097959 86.343421,0.480097959 C86.0845203,0.480097959 85.8943402,0.497210204 85.8943402,0.634904082 C85.8943402,0.73797551 85.9634603,0.789710204 86.1708206,0.789710204 C86.4125411,0.789710204 86.8268621,0.789710204 87.0833656,0.892781633 C87.4976866,1.0647 87.6531069,1.39142449 87.6702871,2.44084286 L87.8428875,10.1636388 L87.7561878,10.1636388 C87.4629268,9.88825102 85.1348182,7.41175102 83.9601762,6.24214898 C81.4422871,3.74774082 78.8173217,0.944516327 78.610361,0.720863265 C78.3139037,0.41125102 78.1584834,0.187597959 77.9683032,0.187597959 C77.7961023,0.187597959 77.7441624,0.428363265 77.7441624,0.772597959 L77.5883425,10.9547816 C77.5711624,12.4511082 77.5020423,12.949751 77.0529614,13.0878429 C76.8116404,13.1562918 76.5007998,13.1734041 76.2762594,13.1734041 C76.1032594,13.1734041 75.999779,13.2080265 75.999779,13.311098 C75.999779,13.4659041 76.1551993,13.4830163 76.3797397,13.4830163 C77.2779014,13.4830163 78.0893633,13.4316796 78.2447836,13.4316796 C78.5756012,13.4316796 79.2664025,13.4830163 80.3891046,13.4830163 C80.6308252,13.4830163 80.785846,13.4487918 80.785846,13.311098 C80.785846,13.2080265 80.6823656,13.1734041 80.492585,13.1734041 C80.2157051,13.1734041 79.8880838,13.1562918 79.5944233,13.0532204 C79.2492224,12.9326388 79.024682,12.4853327 78.9903217,11.1438122 L78.8001416,3.92005714 Z M66.9654233,8.13404694 C66.8967028,8.13404694 66.8795226,8.08231224 66.8967028,8.01386327 L68.4852663,3.78236327 C68.502846,3.71351633 68.5372062,3.6279551 68.5891462,3.6279551 C68.6410861,3.6279551 68.6582663,3.71351633 68.6754464,3.78236327 L70.2292501,8.03097551 C70.2464303,8.08231224 70.2292501,8.13404694 70.1429499,8.13404694 L66.9654233,8.13404694 Z M70.4713702,8.99403673 C70.5576704,8.99403673 70.6092109,9.02826122 70.6435711,9.11461837 L72.0251739,12.7607204 C72.1114741,12.9672612 71.9908136,13.1216694 71.8701531,13.1562918 C71.6971531,13.1734041 71.628033,13.2080265 71.628033,13.311098 C71.628033,13.4316796 71.8357928,13.4316796 72.1462339,13.4487918 C73.5274372,13.4830163 74.7879799,13.4830163 75.4100607,13.4830163 C76.0489222,13.4830163 76.203943,13.4487918 76.203943,13.311098 C76.203943,13.1909143 76.1180423,13.1734041 75.9798021,13.1734041 C75.7724418,13.1734041 75.5135411,13.1562918 75.2542409,13.1045571 C74.8918598,13.0014857 74.390839,12.7639041 73.735197,11.2214143 C72.6296751,8.61557755 69.8668691,1.59796531 69.4521485,0.652016327 C69.279548,0.256444898 69.1764672,0.101638776 69.0206473,0.101638776 C68.8480469,0.101638776 68.7445665,0.290669388 68.5372062,0.789710204 L64.2030169,11.5911184 C63.8574164,12.4511082 63.5297952,13.0361082 62.7351139,13.1391796 C62.5972732,13.1562918 62.3551531,13.1734041 62.2001323,13.1734041 C62.0618921,13.1734041 61.9923725,13.2080265 61.9923725,13.311098 C61.9923725,13.4487918 62.0962524,13.4830163 62.3207928,13.4830163 C63.218555,13.4830163 64.168257,13.4316796 64.3584372,13.4316796 C64.8938182,13.4316796 65.63616,13.4830163 66.1887212,13.4830163 C66.3789014,13.4830163 66.4823818,13.4487918 66.4823818,13.311098 C66.4823818,13.2080265 66.4308413,13.1734041 66.2234811,13.1734041 L65.9645804,13.1734041 C65.4291993,13.1734041 65.2733794,12.949751 65.2733794,12.6405367 C65.2733794,12.4339959 65.3600792,12.0209143 65.5322801,11.5911184 L66.4648021,9.13173061 C66.4995619,9.02826122 66.5339222,8.99403673 66.6206219,8.99403673 L70.4713702,8.99403673 Z M46.6760792,11.7630367 C46.5893794,12.3480367 46.4515388,13.018598 45.9680977,13.1216694 C45.7087975,13.1734041 45.588137,13.1734041 45.4498968,13.1734041 C45.2772963,13.1734041 45.1734164,13.2080265 45.1734164,13.2939857 C45.1734164,13.4487918 45.3116566,13.4830163 45.4846566,13.4830163 C46.0372178,13.4830163 46.8658598,13.4316796 47.1938806,13.4316796 C47.5047212,13.4316796 48.2822224,13.4830163 49.0069845,13.4830163 C49.2662848,13.4830163 49.4217051,13.4487918 49.4217051,13.2939857 C49.4217051,13.2080265 49.300645,13.1734041 49.1628044,13.1734041 C48.9898044,13.1734041 48.7480838,13.1562918 48.4372432,13.0878429 C48.1435827,13.018598 47.9190423,12.8641898 47.9190423,12.5370673 C47.9190423,12.2620776 47.9366219,12.0384245 47.9709822,11.7288122 L48.8687443,4.88351633 L48.9378644,4.88351633 C49.5427651,6.17330204 50.5787674,8.34058776 50.7337882,8.70193469 C50.9411485,9.18306735 52.3051716,11.8147714 52.7194926,12.6059143 C52.9963725,13.1216694 53.1685734,13.4659041 53.3243933,13.4659041 C53.4794141,13.4659041 53.5657143,13.311098 53.9628552,12.5028429 L57.7273032,4.69408776 L57.7968229,4.69408776 L58.8328252,12.2620776 C58.9019453,12.7436082 58.8500053,12.9672612 58.7461254,13.0014857 C58.6254649,13.0532204 58.5563448,13.1045571 58.5563448,13.1909143 C58.5563448,13.2939857 58.6598252,13.3453224 59.0569661,13.3799449 C59.7477674,13.4316796 62.1310122,13.4830163 62.5625134,13.4830163 C62.8042339,13.4830163 63.0115942,13.4316796 63.0115942,13.2939857 C63.0115942,13.1909143 62.8905342,13.1734041 62.7351139,13.1734041 C62.510973,13.1734041 62.1653725,13.1562918 61.6647513,13.0014857 C61.1465503,12.8466796 60.9735503,12.3480367 60.8185296,11.2643939 L59.2471462,0.634904082 C59.1952062,0.273557143 59.0917259,0.101638776 58.9367051,0.101638776 C58.7808852,0.101638776 58.694585,0.239332653 58.5563448,0.514322449 L53.8597744,10.3355571 L49.1452247,0.634904082 C48.9206843,0.187597959 48.8176035,0.101638776 48.6789637,0.101638776 C48.5407236,0.101638776 48.4372432,0.256444898 48.3853032,0.548944898 L46.6760792,11.7630367 Z M36.8330584,8.49539388 C36.8330584,10.0776796 36.8330584,11.4367102 36.7467582,12.1590061 C36.6776381,12.657649 36.5913379,13.0361082 36.246137,13.1045571 C36.0907166,13.1391796 35.8833564,13.1734041 35.6244557,13.1734041 C35.4170954,13.1734041 35.3483748,13.2251388 35.3483748,13.311098 C35.3483748,13.4316796 35.4690353,13.4830163 35.6931762,13.4830163 C36.0387767,13.4830163 36.4878575,13.4487918 36.8849984,13.4487918 C37.2993194,13.4316796 37.6792801,13.4316796 37.8690607,13.4316796 C38.3872617,13.4316796 38.9226427,13.4487918 39.6649845,13.4830163 C40.4077259,13.5005265 41.3574279,13.534751 42.6523309,13.534751 C43.3083725,13.534751 43.4641924,13.534751 43.5848529,13.0878429 C43.6715527,12.7436082 43.8093933,11.5740061 43.8093933,11.1784347 C43.8093933,11.0065163 43.8093933,10.8688224 43.6715527,10.8688224 C43.5504926,10.8688224 43.5161323,10.9376694 43.4813725,11.1267 C43.3603125,11.8318837 43.1533517,12.1932306 42.7042709,12.3997714 C42.2555896,12.6059143 41.5300284,12.6059143 41.0809476,12.6059143 C39.3197836,12.6059143 39.0437028,12.3480367 39.008943,11.1613224 C38.9917628,10.6622816 39.008943,9.07999592 39.008943,8.49539388 L39.008943,7.13636327 C39.008943,7.03329184 39.0261231,6.9644449 39.1124233,6.9644449 C39.5271439,6.9644449 41.2363679,6.98155714 41.5643887,7.01617959 C42.2036497,7.08502653 42.4449707,7.34290408 42.5312709,7.68674082 C42.5832109,7.91039388 42.5832109,8.13404694 42.6007905,8.30596531 C42.6007905,8.39232245 42.6351508,8.46077143 42.7562109,8.46077143 C42.9112316,8.46077143 42.9112316,8.27174082 42.9112316,8.13404694 C42.9112316,8.01386327 42.9631716,7.32579184 42.9803517,6.98155714 C43.0498714,6.1044551 43.1185919,5.82906735 43.1185919,5.72599592 C43.1185919,5.62292449 43.0670515,5.58830204 42.9979314,5.58830204 C42.9112316,5.58830204 42.8425111,5.67426122 42.7218506,5.8119551 C42.5660307,5.98387347 42.30713,6.03560816 41.8924095,6.07023061 C41.4952686,6.1044551 39.5095642,6.1044551 39.1296035,6.1044551 C39.0261231,6.1044551 39.008943,6.03560816 39.008943,5.91542449 L39.008943,1.56374082 C39.008943,1.44315918 39.0437028,1.39142449 39.1296035,1.39142449 C39.4752039,1.39142449 41.2883079,1.42604694 41.5819684,1.46066939 C42.4449707,1.56374082 42.6179707,1.77028163 42.7390307,2.07989388 C42.8249314,2.28603673 42.8425111,2.57853673 42.8425111,2.69911837 C42.8425111,2.85392449 42.8768714,2.93988367 42.9979314,2.93988367 C43.1185919,2.93988367 43.1533517,2.83641429 43.1705319,2.7504551 C43.2052917,2.54391429 43.239652,1.78739388 43.2572316,1.61547551 C43.3083725,0.824332653 43.3950723,0.617791837 43.3950723,0.497210204 C43.3950723,0.41125102 43.3774926,0.342404082 43.2911924,0.342404082 C43.2052917,0.342404082 43.1014118,0.394138776 43.0151115,0.41125102 C42.8768714,0.44547551 42.6007905,0.480097959 42.2723702,0.514322449 C41.9443494,0.531832653 38.5083217,0.531832653 37.955361,0.531832653 C37.7136404,0.531832653 37.3164995,0.514322449 36.8674187,0.497210204 C36.4359176,0.497210204 35.9352963,0.480097959 35.4690353,0.480097959 C35.2097351,0.480097959 35.0890746,0.514322449 35.0890746,0.634904082 C35.0890746,0.755087755 35.192555,0.789710204 35.3827351,0.789710204 C35.6244557,0.789710204 35.9177166,0.806822449 36.0559568,0.841444898 C36.6256982,0.961628571 36.7643379,1.23701633 36.7982986,1.82161837 C36.8330584,2.37199592 36.8330584,2.85392449 36.8330584,5.46811837 L36.8330584,8.49539388 Z M25.9192755,8.49539388 C25.9192755,10.0776796 25.9192755,11.4367102 25.8333748,12.1590061 C25.7642547,12.657649 25.6779545,13.0361082 25.332354,13.1045571 C25.1773333,13.1391796 24.969973,13.1734041 24.7110723,13.1734041 C24.503712,13.1734041 24.4345919,13.2251388 24.4345919,13.311098 C24.4345919,13.4316796 24.5552524,13.4830163 24.7797928,13.4830163 C25.1253933,13.4830163 25.5740746,13.4487918 25.9712155,13.4487918 C26.3855365,13.4316796 26.7658968,13.4316796 26.9556774,13.4316796 C27.4738783,13.4316796 28.0088598,13.4487918 28.7516012,13.4830163 C29.493943,13.5005265 30.4440446,13.534751 31.7389476,13.534751 C32.3949891,13.534751 32.550809,13.534751 32.6714695,13.0878429 C32.7577697,12.7436082 32.8960099,11.5740061 32.8960099,11.1784347 C32.8960099,11.0065163 32.8960099,10.8688224 32.7577697,10.8688224 C32.6367097,10.8688224 32.602749,10.9376694 32.5679891,11.1267 C32.4469291,11.8318837 32.2399684,12.1932306 31.7908875,12.3997714 C31.3418067,12.6059143 30.616645,12.6059143 30.1675642,12.6059143 C28.4064002,12.6059143 28.1299199,12.3480367 28.09516,11.1613224 C28.0779799,10.6622816 28.09516,9.07999592 28.09516,8.49539388 L28.09516,7.13636327 C28.09516,7.03329184 28.1127397,6.9644449 28.19904,6.9644449 C28.613361,6.9644449 30.322585,6.98155714 30.6510053,7.01617959 C31.2898667,7.08502653 31.5315873,7.34290408 31.6178875,7.68674082 C31.6698275,7.91039388 31.6698275,8.13404694 31.6874072,8.30596531 C31.6874072,8.39232245 31.7217674,8.46077143 31.8424279,8.46077143 C31.9978483,8.46077143 31.9978483,8.27174082 31.9978483,8.13404694 C31.9978483,8.01386327 32.0497882,7.32579184 32.0669684,6.98155714 C32.136488,6.1044551 32.2052085,5.82906735 32.2052085,5.72599592 C32.2052085,5.62292449 32.1532686,5.58830204 32.084548,5.58830204 C31.9978483,5.58830204 31.9291277,5.67426122 31.8080677,5.8119551 C31.6526473,5.98387347 31.3937467,6.03560816 30.9794256,6.07023061 C30.5818852,6.1044551 28.5961808,6.1044551 28.2162201,6.1044551 C28.1127397,6.1044551 28.09516,6.03560816 28.09516,5.91542449 L28.09516,1.56374082 C28.09516,1.44315918 28.1299199,1.39142449 28.2162201,1.39142449 C28.561421,1.39142449 30.3745249,1.42604694 30.668585,1.46066939 C31.5315873,1.56374082 31.7041878,1.77028163 31.8252478,2.07989388 C31.911548,2.28603673 31.9291277,2.57853673 31.9291277,2.69911837 C31.9291277,2.85392449 31.963488,2.93988367 32.084548,2.93988367 C32.2052085,2.93988367 32.2399684,2.83641429 32.256749,2.7504551 C32.2915088,2.54391429 32.3262686,1.78739388 32.3434487,1.61547551 C32.3949891,0.824332653 32.4816889,0.617791837 32.4816889,0.497210204 C32.4816889,0.41125102 32.4641092,0.342404082 32.377809,0.342404082 C32.2915088,0.342404082 32.1880284,0.394138776 32.1017282,0.41125102 C31.963488,0.44547551 31.6874072,0.480097959 31.3589868,0.514322449 C31.0309661,0.531832653 27.5945388,0.531832653 27.0423771,0.531832653 C26.800257,0.531832653 26.4031162,0.514322449 25.9540353,0.497210204 C25.5225342,0.497210204 25.0215134,0.480097959 24.5552524,0.480097959 C24.2963517,0.480097959 24.1756912,0.514322449 24.1756912,0.634904082 C24.1756912,0.755087755 24.2791716,0.789710204 24.4689522,0.789710204 C24.7110723,0.789710204 25.0043333,0.806822449 25.1425734,0.841444898 C25.7123148,0.961628571 25.850555,1.23701633 25.8853148,1.82161837 C25.9192755,2.37199592 25.9192755,2.85392449 25.9192755,5.46811837 L25.9192755,8.49539388 Z M14.9195919,1.59796531 C14.9195919,1.46066939 14.9543517,1.39142449 15.0750122,1.3572 C15.2480122,1.30586327 15.5588529,1.28835306 15.990354,1.28835306 C17.0091762,1.28835306 18.6324995,1.99353673 18.6324995,4.43581224 C18.6324995,5.84657755 18.1314788,6.63772041 17.6136774,7.01617959 C17.3028367,7.23983265 17.0782963,7.30867959 16.3878945,7.30867959 C15.9559938,7.30867959 15.4377928,7.2569449 15.0750122,7.13636327 C14.9543517,7.08502653 14.9195919,7.01617959 14.9195919,6.82675102 L14.9195919,1.59796531 Z M12.8819476,8.49539388 C12.8819476,10.0776796 12.8819476,11.4367102 12.7960469,12.1590061 C12.7265273,12.657649 12.6406266,13.0361082 12.2950261,13.1045571 C12.1396058,13.1391796 11.932645,13.1734041 11.6737443,13.1734041 C11.4663841,13.1734041 11.397264,13.2251388 11.397264,13.311098 C11.397264,13.4316796 11.5179245,13.4830163 11.7424649,13.4830163 C12.4332663,13.4830163 13.5212085,13.4316796 13.8492293,13.4316796 C14.10813,13.4316796 15.3858529,13.4830163 16.3878945,13.4830163 C16.6120353,13.4830163 16.7330954,13.4316796 16.7330954,13.311098 C16.7330954,13.2251388 16.6635758,13.1734041 16.5257351,13.1734041 C16.3183748,13.1734041 15.9384141,13.1391796 15.6795134,13.1045571 C15.1613125,13.0361082 15.0578321,12.657649 15.0062917,12.1590061 C14.9195919,11.4367102 14.9195919,10.0776796 14.9195919,8.47788367 L14.9195919,8.23751633 C14.9195919,8.13404694 14.9715319,8.09942449 15.0578321,8.09942449 L16.5600954,8.13404694 C16.6811554,8.13404694 16.7846358,8.15115918 16.870936,8.25462857 C17.095876,8.51210816 17.8897582,9.68210816 18.5805596,10.6280571 C19.5478413,11.9524653 20.2038829,12.7607204 20.9462247,13.1562918 C21.3953055,13.3970571 21.8272062,13.4830163 22.7940885,13.4830163 L24.4345919,13.4830163 C24.6419522,13.4830163 24.7626127,13.4487918 24.7626127,13.311098 C24.7626127,13.2251388 24.6934926,13.1734041 24.5552524,13.1734041 C24.4170122,13.1734041 24.2619915,13.1562918 24.0718113,13.1216694 C23.8129106,13.0703327 23.1049291,12.949751 22.1380469,11.9524653 C21.1192247,10.8859347 19.9278021,9.35538367 18.390779,7.42886327 C20.1347628,6.01849592 20.6701439,4.84889388 20.6701439,3.57622041 C20.6701439,2.42373061 19.9793425,1.54662857 19.4959014,1.21950612 C18.5633794,0.583567347 17.4063171,0.480097959 16.3183748,0.480097959 C15.7829938,0.480097959 14.4709106,0.531832653 13.8835896,0.531832653 C13.5212085,0.531832653 12.4332663,0.480097959 11.5179245,0.480097959 C11.2590238,0.480097959 11.1379637,0.514322449 11.1379637,0.634904082 C11.1379637,0.755087755 11.2418436,0.789710204 11.4316242,0.789710204 C11.6737443,0.789710204 11.9670053,0.806822449 12.104846,0.841444898 C12.6749868,0.961628571 12.813227,1.23701633 12.8475873,1.82161837 C12.8819476,2.37199592 12.8819476,2.85392449 12.8819476,5.46811837 L12.8819476,8.49539388 Z M4.31704919,7.10213878 C4.31704919,6.98155714 4.35180901,6.94733265 4.43810924,6.94733265 C4.73176975,6.94733265 6.56205381,6.94733265 6.9939545,6.99906735 C7.52893603,7.06751633 7.78783672,7.37712857 7.87453649,7.61829184 C7.94365658,7.82443469 7.97801686,8.03097551 7.97801686,8.15115918 C7.97801686,8.27174082 8.01277667,8.39232245 8.11625704,8.39232245 C8.28885751,8.39232245 8.28885751,8.22000612 8.28885751,8.0652 C8.28885751,7.94461837 8.32321778,7.15347551 8.3579776,6.80963878 C8.40991755,6.27637347 8.49621778,5.84657755 8.49621778,5.74310816 C8.49621778,5.64003673 8.46185751,5.58830204 8.39233788,5.58830204 C8.28885751,5.58830204 8.25449723,5.65754694 8.16779746,5.76061837 C7.99559654,5.98387347 7.75347644,6.05272041 7.42545566,6.07023061 C7.1837351,6.08734286 6.94201455,6.08734286 6.64835404,6.08734286 L4.43810924,6.1044551 C4.33462887,6.1044551 4.31704919,6.05272041 4.31704919,5.94964898 L4.31704919,1.6497 C4.31704919,1.46066939 4.36898915,1.40893469 4.47246952,1.40893469 L7.13179515,1.46066939 C7.78783672,1.47778163 8.15061732,1.73565918 8.27167737,1.97642449 C8.37515774,2.2171898 8.37515774,2.49257755 8.37515774,2.62987347 C8.39233788,2.81930204 8.42709769,2.90526122 8.5477582,2.90526122 C8.66881824,2.90526122 8.70317852,2.8021898 8.7207582,2.66449592 C8.75511848,2.4579551 8.78947875,1.44315918 8.80705843,1.27124082 C8.85859885,0.824332653 8.94489908,0.617791837 8.94489908,0.497210204 C8.94489908,0.41125102 8.89335866,0.342404082 8.82423857,0.342404082 C8.73793834,0.342404082 8.65163811,0.41125102 8.5477582,0.44547551 C8.37515774,0.497210204 8.16779746,0.497210204 7.83977667,0.514322449 C7.4426358,0.531832653 3.93748799,0.531832653 3.28104688,0.531832653 C3.03932633,0.531832653 2.64218545,0.514322449 2.19310462,0.497210204 C1.74442333,0.497210204 1.24340254,0.480097959 0.794321709,0.480097959 C0.535421016,0.480097959 0.39758037,0.514322449 0.39758037,0.652016327 C0.39758037,0.755087755 0.518240878,0.789710204 0.690841339,0.789710204 C0.932561894,0.789710204 1.2262224,0.806822449 1.36406305,0.841444898 C1.93420393,0.961628571 2.07244411,1.23701633 2.10680439,1.82161837 C2.14116467,2.37199592 2.14116467,2.85392449 2.14116467,5.46811837 L2.14116467,8.49539388 C2.14116467,10.1465265 2.14116467,11.4367102 2.05526397,12.1590061 C1.98614388,12.657649 1.89984365,13.0361082 1.55464273,13.1045571 C1.39882286,13.1391796 1.19186212,13.1734041 0.932561894,13.1734041 C0.742781293,13.1734041 0.673661201,13.2251388 0.673661201,13.311098 C0.673661201,13.4487918 0.794321709,13.4830163 1.0364418,13.4830163 C1.69248337,13.4830163 2.78042564,13.4316796 3.22910693,13.4316796 C3.67818776,13.4316796 4.76613002,13.4830163 5.85407229,13.4830163 C6.11337252,13.4830163 6.23363349,13.4316796 6.23363349,13.311098 C6.23363349,13.2251388 6.16491293,13.1734041 5.94037252,13.1734041 C5.69865196,13.1734041 5.31869122,13.1391796 5.07697067,13.1045571 C4.55916928,13.0361082 4.45528938,12.657649 4.40334942,12.1590061 C4.31704919,11.4367102 4.31704919,10.1465265 4.31704919,8.49539388 L4.31704919,7.10213878 Z" id="Fill-1" fill="#FEFEFE" mask="url(#mask-2)"></path>
            </g>
            <g id="Group-6" transform="translate(0.000000, 0.164516)">
                <mask id="mask-4" fill="white">
                    <use xlink:href="#path-3"></use>
                </mask>
                <g id="Clip-5"></g>
                <path d="M10.8755072,19.6090806 C10.8755072,19.4180602 10.9302439,19.3631418 11.067685,19.3631418 C11.5343455,19.3631418 14.4457797,19.3631418 15.1321861,19.4451214 C15.9836018,19.5545602 16.3955256,20.0468357 16.5329667,20.4300704 C16.6428397,20.7583867 16.6975764,21.0863051 16.6975764,21.2777235 C16.6975764,21.4695398 16.7527127,21.6605602 16.9173224,21.6605602 C17.1922046,21.6605602 17.1922046,21.3875602 17.1922046,21.1412235 C17.1922046,20.9494071 17.2469413,19.6910602 17.3016781,19.1442643 C17.3843824,18.2962133 17.5218236,17.6121214 17.5218236,17.4481622 C17.5218236,17.2838051 17.4666873,17.2018255 17.3568143,17.2018255 C17.1922046,17.2018255 17.1370684,17.3116622 17.0000268,17.4756214 C16.7251446,17.830999 16.3407889,17.9404378 15.8189921,17.9678969 C15.434237,17.9949582 15.0498813,17.9949582 14.5832208,17.9949582 L11.067685,18.0224173 C10.9030753,18.0224173 10.8755072,17.9404378 10.8755072,17.7764786 L10.8755072,10.93755 C10.8755072,10.6366929 10.957812,10.5547133 11.1228212,10.5547133 L15.3519321,10.6366929 C16.3955256,10.6637541 16.9724587,11.074448 17.1646365,11.4572847 C17.3292462,11.8405194 17.3292462,12.2778765 17.3292462,12.4967541 C17.3568143,12.7976112 17.4119506,12.9345092 17.6041284,12.9345092 C17.7963062,12.9345092 17.851043,12.770152 17.8786111,12.5516724 C17.9337473,12.2233561 17.9884841,10.6092337 18.0160522,10.3358357 C18.098357,9.62468265 18.2357982,9.29596837 18.2357982,9.10455 C18.2357982,8.96805 18.1530938,8.85861122 18.0436203,8.85861122 C17.9061792,8.85861122 17.7687381,8.96805 17.6041284,9.02257041 C17.3292462,9.10455 17.0000268,9.10455 16.4778305,9.13200918 C15.8461607,9.15946837 10.271006,9.15946837 9.22741247,9.15946837 C8.84305681,9.15946837 8.21138707,9.13200918 7.49701293,9.10455 C6.78343788,9.10455 5.98675889,9.07748878 5.2727843,9.07748878 C4.86086051,9.07748878 4.64111455,9.13200918 4.64111455,9.35088673 C4.64111455,9.51484592 4.83329238,9.56976429 5.10777506,9.56976429 C5.49253025,9.56976429 5.95919076,9.59722347 6.17893672,9.65174388 C7.08548868,9.84316224 7.30523464,10.2813153 7.35997136,11.210948 C7.41470808,12.0864582 7.41470808,12.8521316 7.41470808,17.0104071 L7.41470808,21.8249173 C7.41470808,24.45105 7.41470808,26.5025296 7.27766651,27.6518357 C7.16779353,28.4449684 7.03035242,29.0466827 6.48098753,29.1561214 C6.23407298,29.2110398 5.90445404,29.2659582 5.49253025,29.2659582 C5.19047945,29.2659582 5.08060647,29.3479378 5.08060647,29.4844378 C5.08060647,29.7033153 5.2727843,29.7582337 5.65713995,29.7582337 C6.70113303,29.7582337 8.43113303,29.6758561 9.14510762,29.6758561 C9.85908222,29.6758561 11.5894818,29.7582337 13.3194818,29.7582337 C13.7314055,29.7582337 13.9239829,29.6758561 13.9239829,29.4844378 C13.9239829,29.3479378 13.8141099,29.2659582 13.4569229,29.2659582 C13.0725672,29.2659582 12.4680661,29.2110398 12.0837104,29.1561214 C11.2598628,29.0466827 11.0948536,28.4449684 11.0125487,27.6518357 C10.8755072,26.5025296 10.8755072,24.45105 10.8755072,21.8249173 L10.8755072,19.6090806 Z M26.9313455,30.1410704 C28.3868628,30.1410704 29.9250845,29.8947337 31.2978975,29.0192235 C33.2752115,27.7338153 33.8797127,25.8462949 33.8797127,24.2596316 C33.8797127,21.6605602 32.6986781,19.7730398 29.3757196,17.2838051 L28.6066088,16.70955 C26.3268443,14.9859888 25.6951746,14.0288969 25.6951746,12.770152 C25.6951746,11.1289684 26.9313455,9.95260102 28.9637958,9.95260102 C30.7485326,9.95260102 31.5452115,10.7735908 31.9571353,11.2933255 C32.5336688,12.0044786 32.6711099,12.8521316 32.6711099,13.0984684 C32.6711099,13.4267847 32.7538143,13.5911418 32.9459921,13.5911418 C33.1657381,13.5911418 33.248043,13.3722643 33.248043,12.770152 C33.248043,10.6366929 33.3579159,9.84316224 33.3579159,9.48778469 C33.3579159,9.29596837 33.2204748,9.21398878 32.9735603,9.15946837 C32.2591861,8.96805 31.1057196,8.69425408 29.3205834,8.69425408 C25.5029968,8.69425408 22.9767173,10.8555704 22.9767173,13.8645398 C22.9767173,16.0803765 24.0199113,17.9949582 27.0412185,20.3476929 L28.304558,21.3326418 C30.5839229,23.1107235 30.9958467,24.3690704 30.9958467,25.7093969 C30.9958467,27.1591622 29.7876434,28.8278051 27.3157012,28.8278051 C25.6128697,28.8278051 23.9927427,28.0895908 23.3886411,26.0651724 C23.2512,25.6003561 23.141327,25.0257031 23.141327,24.6699276 C23.141327,24.45105 23.1137589,24.2051112 22.8664448,24.2051112 C22.6466988,24.2051112 22.564394,24.5059684 22.5372254,24.9162643 C22.5096573,25.3540194 22.3997843,26.9952031 22.3997843,28.4998867 C22.3997843,29.101601 22.4820891,29.238101 22.9215811,29.4299173 C24.1022162,29.9492541 25.3383871,30.1410704 26.9313455,30.1410704 Z M7.99076212e-05,38.6016827 L38.5211469,38.6016827 L38.5211469,0.233243878 L7.99076212e-05,0.233243878 L7.99076212e-05,38.6016827 Z" id="Fill-4" fill="#FEFEFE" mask="url(#mask-4)"></path>
            </g>
        </g>
    </g>
</svg>