<?xml version="1.0" encoding="UTF-8"?>
<svg width="27px" height="21px" viewBox="0 0 27 21" version="1.1" xmlns="http://www.w3.org/2000/svg" xmlns:xlink="http://www.w3.org/1999/xlink">
    <!-- Generator: sketchtool 48.2 (47327) - http://www.bohemiancoding.com/sketch -->
    <title>6DB5BAB8-2D6C-4137-99F4-0376C27A7BD8</title>
    <desc>Created with sketchtool.</desc>
    <defs></defs>
    <g id="approach-tab1" stroke="none" stroke-width="1" fill="none" fill-rule="evenodd" transform="translate(-936.000000, -581.000000)">
        <path d="M962.533889,591.328278 L959.449672,584.702106 L960.380677,584.702106 C960.863097,584.702106 961.253899,584.308681 961.253899,583.822549 C961.253899,583.337567 960.863097,582.94261 960.380677,582.94261 L952.176119,582.94261 C951.791399,581.782637 950.713273,581 949.50019,581 C948.285207,581 947.208601,581.782637 946.822741,582.94261 L938.619703,582.94261 C938.136903,582.94261 937.746481,583.337567 937.746481,583.822549 C937.746481,584.308681 938.136903,584.702106 938.619703,584.702106 L939.550708,584.702106 L936.46611,591.328278 C936.179852,591.456994 935.996996,591.744306 936.000037,592.059965 C936.000037,593.37547 936.518192,594.635427 937.440454,595.564784 C938.362716,596.494142 939.613054,597.01475 940.916994,597.01475 C943.635881,596.983338 945.83205,594.770272 945.863223,592.031617 C945.861703,591.708679 945.665922,591.418303 945.368638,591.298398 L942.284421,584.702106 L946.822741,584.702106 C947.095694,585.543355 947.775796,586.1854 948.626968,586.402225 L948.626968,596.89791 C946.638364,597.312405 945.207072,599.072285 945.193766,601.119476 C945.186163,601.355837 945.27512,601.584921 945.440108,601.750795 C945.606237,601.917053 945.833571,602.008226 946.066608,601.999416 L952.933392,601.999416 C953.166429,602.008226 953.393763,601.917053 953.558371,601.750795 C953.72488,601.584921 953.813837,601.355837 953.806614,601.119476 C953.793309,599.072285 952.361635,597.312405 950.373032,596.89791 L950.373032,586.402225 C951.224204,586.1854 951.904306,585.543355 952.176119,584.702106 L956.715579,584.702106 L953.631361,591.298398 C953.334458,591.434775 953.141338,591.730898 953.136777,592.059965 C953.136777,593.37547 953.654931,594.635427 954.577193,595.564784 C955.499455,596.494142 956.749793,597.01475 958.053733,597.01475 C960.760835,596.98487 962.952443,594.788277 962.999963,592.059965 C963.003004,591.744306 962.820528,591.456994 962.533889,591.328278 Z M960.55593,591.151678 L955.609321,591.151678 L958.081865,585.786995 L960.55593,591.151678 Z M940.916994,585.786995 L943.390679,591.151678 L938.44445,591.151678 L940.916994,585.786995 Z M940.916994,595.228055 L940.916994,595.226523 C939.500147,595.229587 938.252851,594.283757 937.862049,592.911557 L944.001212,592.911557 C943.575055,594.271882 942.333461,595.203921 940.916994,595.226523 L940.916994,595.228055 Z M951.91457,600.241068 L947.08543,600.241068 C947.464067,599.361129 948.395072,598.54095 949.50019,598.54095 C950.604928,598.5398 951.535933,599.361129 951.91457,600.241068 Z M949.50019,584.790598 C949.06491,584.790598 948.671447,584.525888 948.504938,584.120204 C948.338809,583.71452 948.430807,583.247926 948.738354,582.938013 C949.047042,582.628099 949.508934,582.535393 949.91152,582.703183 C950.313727,582.87059 950.576796,583.26708 950.576796,583.705709 C950.56197,584.298338 950.087914,584.774126 949.50019,584.790598 Z M958.053733,595.226523 C956.635366,595.229587 955.388069,594.283757 954.998788,592.911557 L961.137951,592.911557 C960.711795,594.271882 959.46868,595.203921 958.053733,595.226523 Z" id="value-green" fill="#93B191"></path>
    </g>
</svg>