<?xml version="1.0" encoding="UTF-8"?>
<svg width="54px" height="54px" viewBox="0 0 54 54" version="1.1" xmlns="http://www.w3.org/2000/svg" xmlns:xlink="http://www.w3.org/1999/xlink">
    <!-- Generator: sketchtool 48.2 (47327) - http://www.bohemiancoding.com/sketch -->
    <title>6D8F6B02-8D59-446F-9709-827F0D0E8263</title>
    <desc>Created with sketchtool.</desc>
    <defs>
        <polygon id="path-1" points="0.0004 0.8805 53.9064 0.8805 53.9064 33 0.0004 33"></polygon>
        <polygon id="path-3" points="0 54.9065 53.907 54.9065 53.907 0.9995 0 0.9995"></polygon>
    </defs>
    <g id="industry-focus-copy-5" stroke="none" stroke-width="1" fill="none" fill-rule="evenodd" transform="translate(-582.000000, -1213.000000)">
        <g id="consumer6" transform="translate(582.000000, 1212.000000)">
            <path d="M20.215,29.5258 C23.921,29.5258 26.953,26.4938 26.953,22.7868 L13.477,22.7868 C13.477,26.4938 16.509,29.5258 20.215,29.5258" id="Fill-1" fill="#020303"></path>
            <path d="M33.6915,29.5258 C37.3975,29.5258 40.4295,26.4938 40.4295,22.7868 L26.9535,22.7868 C26.9535,26.4938 29.9855,29.5258 33.6915,29.5258" id="Fill-3" fill="#020303"></path>
            <g id="Group-7" transform="translate(0.000000, 21.906500)">
                <mask id="mask-2" fill="white">
                    <use xlink:href="#path-1"></use>
                </mask>
                <g id="Clip-6"></g>
                <path d="M53.9064,0.8805 L40.4294,0.8805 C40.4294,4.2495 42.9004,6.9445 46.0454,7.5065 L46.0454,28.5075 L21.7874,28.5075 L21.7874,17.9505 L12.1294,17.9505 L12.1294,28.5075 L7.8614,28.5075 L7.8614,7.5065 C11.0064,6.9445 13.4764,4.2495 13.4764,0.8805 L0.0004,0.8805 C0.0004,3.3515 1.3474,5.5975 3.3694,6.7205 L3.3694,28.5075 L0.0004,28.5075 L0.0004,33.0005 L53.9064,33.0005 L53.9064,28.5075 L50.5374,28.5075 L50.5374,6.7205 C52.5584,5.4855 53.9064,3.3515 53.9064,0.8805" id="Fill-5" fill="#020303" mask="url(#mask-2)"></path>
            </g>
            <mask id="mask-4" fill="white">
                <use xlink:href="#path-3"></use>
            </mask>
            <g id="Clip-9"></g>
            <polygon id="Fill-8" fill="#020303" mask="url(#mask-4)" points="26.953 47.1575 43.013 47.1575 43.013 34.5795 26.953 34.5795"></polygon>
            <path d="M47.0558,0.9999 L6.8508,0.9999 L-0.0002,20.5419 L53.9068,20.5419 L47.0558,0.9999 Z M17.9688,4.7059 L14.5998,17.3959 C14.3748,18.2949 13.3648,18.1829 13.2518,18.1829 C12.6908,18.0699 12.3538,17.3959 12.4658,16.8349 L15.8348,4.1449 C15.9478,3.5829 16.6208,3.2459 17.1828,3.3579 C17.7438,3.4709 18.0808,4.0319 17.9688,4.7059 Z M28.0768,17.0599 C28.0768,17.7329 27.6268,18.1829 26.9528,18.1829 C26.2798,18.1829 25.8298,17.7329 25.8298,17.0599 L25.8298,4.3699 C25.8298,3.6949 26.2798,3.2459 26.9528,3.2459 C27.6268,3.2459 28.0768,3.6949 28.0768,4.3699 L28.0768,17.0599 Z M40.7668,18.1829 C40.0928,18.4079 39.5318,17.8459 39.4188,17.3959 L35.9378,4.7059 C35.8258,4.1449 36.1618,3.4709 36.7238,3.3579 C37.2848,3.2459 37.9588,3.5829 38.0718,4.1449 L41.4408,16.8349 C41.6648,17.3959 41.3278,18.0699 40.7668,18.1829 Z" id="Fill-10" fill="#020303" mask="url(#mask-4)"></path>
        </g>
    </g>
</svg>