<?xml version="1.0" encoding="UTF-8"?>
<svg width="40px" height="58px" viewBox="0 0 40 58" version="1.1" xmlns="http://www.w3.org/2000/svg" xmlns:xlink="http://www.w3.org/1999/xlink">
    <!-- Generator: sketchtool 48.2 (47327) - http://www.bohemiancoding.com/sketch -->
    <title>9CCA6634-2148-40DB-91DC-A0D522F470A3</title>
    <desc>Created with sketchtool.</desc>
    <defs>
        <polygon id="path-1" points="0 -0.00015 39.563 -0.00015 39.563 57.4017 0 57.4017"></polygon>
    </defs>
    <g id="industry-focus-copy-5" stroke="none" stroke-width="1" fill="none" fill-rule="evenodd" transform="translate(-304.000000, -1387.000000)">
        <g id="consumer7" transform="translate(304.000000, 1387.000000)">
            <mask id="mask-2" fill="white">
                <use xlink:href="#path-1"></use>
            </mask>
            <g id="Clip-2"></g>
            <path d="M0.0028,23.2781 L0.6898,1.7591 C0.7348,0.7731 1.5498,0.0021 2.5348,0.0021 C3.5208,0.0021 4.3318,0.7731 4.3778,1.7591 L4.8648,15.8161 C4.8748,16.5761 5.4368,17.2131 6.1898,17.3201 C6.5988,17.3651 7.0078,17.2371 7.3178,16.9691 C7.6268,16.7011 7.8128,16.3131 7.8278,15.9041 L8.3078,1.8471 L8.3108,1.8471 C8.3218,0.9711 8.9318,0.2241 9.7858,0.0321 C10.0308,-0.0109 10.2768,-0.0109 10.5228,0.0321 C11.3758,0.2241 11.9858,0.9711 11.9978,1.8471 L12.4778,15.9041 L12.4798,15.9041 C12.4948,16.3131 12.6818,16.7011 12.9928,16.9691 C13.3008,17.2371 13.7098,17.3651 14.1178,17.3201 C14.8718,17.2131 15.4338,16.5761 15.4418,15.8161 L15.9248,1.7591 C15.9698,0.7731 16.7808,0.0021 17.7698,0.0021 C18.7558,0.0021 19.5668,0.7731 19.6118,1.7591 L20.2988,23.2531 C20.3718,25.3341 19.3108,27.2921 17.5278,28.3691 L14.1248,30.4591 L14.1248,55.3761 C14.1248,56.4961 13.2188,57.4021 12.0988,57.4021 L8.1568,57.4021 C7.0378,57.4021 6.1288,56.4961 6.1288,55.3761 L6.1288,30.4191 L2.7978,28.3961 C1.0038,27.3251 -0.0662,25.3641 0.0028,23.2781 Z M26.8628,36.7491 L31.5488,36.7491 L31.5488,55.3761 C31.5488,55.9161 31.7668,56.4351 32.1498,56.8131 C32.5338,57.1941 33.0528,57.4081 33.5938,57.4021 L37.5338,57.4021 C38.6538,57.4021 39.5608,56.4921 39.5608,53.4361 L39.5608,1.4291 L39.5638,1.4291 C39.5238,0.9011 39.2128,0.4321 38.7388,0.1941 C38.2668,-0.0469 37.7048,-0.0189 37.2538,0.2581 C29.8748,4.8761 25.3908,12.9671 25.3878,21.6731 L25.3878,35.3031 C25.3878,36.1171 26.0488,36.7791 26.8628,36.7791 L26.8628,36.7491 Z" id="Fill-1" fill="#020303" mask="url(#mask-2)"></path>
        </g>
    </g>
</svg>