<?xml version="1.0" encoding="UTF-8"?>
<svg width="60px" height="49px" viewBox="0 0 60 49" version="1.1" xmlns="http://www.w3.org/2000/svg" xmlns:xlink="http://www.w3.org/1999/xlink">
    <!-- Generator: sketchtool 48.2 (47327) - http://www.bohemiancoding.com/sketch -->
    <title>4F127CA2-1E3E-4F25-A0A5-F956A0359049</title>
    <desc>Created with sketchtool.</desc>
    <defs>
        <polygon id="path-1" points="0.0160461777 0.237 30.3774 0.237 30.3774 44.7838 0.0160461777 44.7838"></polygon>
        <polygon id="path-3" points="0 49.7631 60.006 49.7631 60.006 1.0001 0 1.0001"></polygon>
    </defs>
    <g id="industry-focus-copy-5" stroke="none" stroke-width="1" fill="none" fill-rule="evenodd" transform="translate(-201.000000, -1054.000000)">
        <g id="consumer1" transform="translate(201.000000, 1053.000000)">
            <g id="Group-3" transform="translate(24.000000, 0.763100)">
                <mask id="mask-2" fill="white">
                    <use xlink:href="#path-1"></use>
                </mask>
                <g id="Clip-2"></g>
                <path d="M7.2894,7.8268 L22.5944,7.8268 C22.1554,5.1068 18.6524,2.5698 15.2924,2.5098 C11.4654,2.4418 7.9024,4.7928 7.2894,7.8268 Z M16.3164,0.2368 C16.8094,0.3518 17.3074,0.4448 17.7924,0.5848 C21.3944,1.6248 23.9094,3.8038 24.9364,7.4978 C25.0394,7.8678 25.2364,7.8618 25.5114,7.8608 C27.1204,7.8568 28.7284,7.8588 30.3774,7.8588 L30.3774,25.1198 C29.6004,25.2398 28.7994,25.3268 28.0154,25.4938 C27.2134,25.6648 26.3514,25.9088 25.9274,26.6388 C24.9394,28.3428 23.8164,29.9508 23.8934,32.1398 C24.0364,36.1338 23.9344,40.1358 23.9344,44.1348 L23.9344,44.7838 L2.3924,44.7838 C3.3804,43.9678 4.0554,43.0548 4.3064,41.8868 C4.4004,41.4458 4.4814,40.9908 4.4824,40.5418 C4.4954,35.0088 4.4944,29.4748 4.4804,23.9408 C4.4794,23.6588 4.3834,23.3448 4.2384,23.0998 C3.5744,21.9788 2.8764,20.8768 2.1964,19.7778 C3.1994,18.4158 3.1794,17.4718 2.1204,16.6878 C1.8344,16.4768 1.5054,16.3168 1.1794,16.1728 C0.8224,16.0148 0.2854,16.0018 0.1214,15.7408 C-0.0686,15.4378 0.0564,14.9338 0.0564,14.5178 C0.0564,12.3578 0.0594,10.1978 0.0624,8.0368 C0.0624,8.0018 0.0814,7.9668 0.1134,7.8588 C1.1454,7.8588 2.1994,7.8598 3.2534,7.8588 C3.7454,7.8578 4.3484,8.0228 4.6984,7.7978 C5.0244,7.5878 5.0764,6.9588 5.2584,6.5168 C6.7224,2.9618 9.4694,1.0518 13.1634,0.3538 C13.3074,0.3268 13.4464,0.2768 13.5874,0.2368 L16.3164,0.2368 Z" id="Fill-1" fill="#231F20" mask="url(#mask-2)"></path>
            </g>
            <mask id="mask-4" fill="white">
                <use xlink:href="#path-3"></use>
            </mask>
            <g id="Clip-5"></g>
            <path d="M10.084,40.1081 L12.031,40.1081 L12.031,22.9851 L10.084,22.9851 L10.084,40.1081 Z M5.293,5.9871 C5.266,5.9721 5.234,5.9441 5.2,5.9401 C4.269,5.8371 4.194,5.7691 4.131,4.9751 C4.062,4.1101 4.308,3.6821 5.113,3.5121 C6.684,3.1801 8.275,3.1801 9.845,3.5021 C10.828,3.7041 11.248,4.9341 10.666,5.7511 C10.597,5.8491 10.419,5.8951 10.286,5.9131 C10.085,5.9391 9.878,5.9201 9.582,5.9201 C9.645,6.9551 9.707,7.9291 9.763,8.9031 C9.913,11.5501 10.938,13.9091 12.068,16.2581 C12.975,18.1461 13.77,20.0931 14.504,22.0551 C14.802,22.8501 14.921,23.7531 14.925,24.6071 C14.954,30.1391 14.931,35.6711 14.92,41.2021 C14.919,41.7501 14.94,42.3081 14.851,42.8441 C14.796,43.1741 14.605,43.5181 14.384,43.7761 C13.591,44.6981 12.52,45.0961 11.348,45.2761 C8.536,45.7071 5.729,45.7321 2.942,45.1121 C2.419,44.9961 1.905,44.7521 1.44,44.4771 C0.519,43.9331 0.056,43.1741 0.064,42.0101 C0.099,36.8191 0.04,31.6271 0.031,26.4361 C0.029,25.4151 -0.096,24.3411 0.17,23.3841 C0.667,21.5931 1.368,19.8521 2.063,18.1221 C2.577,16.8451 3.185,15.6021 3.806,14.3711 C4.79,12.4201 5.133,10.3241 5.285,8.1831 C5.335,7.4691 5.293,6.7491 5.293,5.9871 Z" id="Fill-4" fill="#231F20" mask="url(#mask-4)"></path>
            <path d="M26.6903,25.0684 C26.0033,23.9514 25.3573,22.9294 24.7413,21.8894 C24.5613,21.5854 24.3483,21.4924 24.0083,21.4994 C23.0053,21.5204 21.9943,21.5824 20.9993,21.4864 C19.9203,21.3834 19.1943,21.6814 18.6833,22.6864 C18.2633,23.5124 17.6693,24.2514 17.1213,25.0754 C20.3543,26.2344 23.4883,26.2254 26.6903,25.0684 M19.4443,20.1374 C19.0973,19.9724 18.8153,19.8624 18.5573,19.7124 C17.8023,19.2744 17.7733,18.6424 18.5483,18.2574 C19.1303,17.9684 19.7793,17.7474 20.4213,17.6584 C21.7383,17.4774 23.0653,17.4944 24.3653,17.8514 C24.4753,17.8814 24.5863,17.9124 24.6883,17.9604 C25.1633,18.1784 25.7643,18.3244 25.7863,18.9644 C25.8063,19.5614 25.2493,19.7194 24.8103,19.9324 C24.7433,19.9654 24.6813,20.0084 24.5723,20.0724 C25.3713,21.3674 26.1483,22.6624 26.9643,23.9324 C27.2543,24.3824 27.3713,24.8314 27.3693,25.3644 C27.3543,30.5384 27.3613,35.7134 27.3593,40.8874 C27.3593,43.6974 25.6633,45.4654 22.8333,45.5494 C21.8523,45.5784 20.8553,45.5754 19.8863,45.4394 C18.1703,45.1974 16.8883,43.7994 16.5543,41.9414 C16.4783,41.5154 16.4403,41.0764 16.4403,40.6444 C16.4323,35.4694 16.4303,30.2954 16.4473,25.1214 C16.4483,24.8064 16.5623,24.4514 16.7333,24.1864 C17.6073,22.8384 18.5183,21.5134 19.4443,20.1374" id="Fill-6" fill="#231F20" mask="url(#mask-4)"></path>
            <path d="M60.0009,38.9585 C60.0009,40.9855 60.0049,43.0115 60.0009,45.0385 C59.9929,47.9865 58.2069,49.7705 55.2529,49.7635 C54.3459,49.7605 53.4299,49.7765 52.5359,49.6555 C50.8239,49.4225 49.5219,48.0275 49.1939,46.1735 C49.1179,45.7485 49.0819,45.3105 49.0809,44.8785 C49.0729,40.7685 49.0809,36.6585 49.0739,32.5485 C49.0709,31.1825 49.4139,29.9705 50.4939,29.0475 C50.5719,28.9815 50.6709,28.8555 50.6559,28.7775 C50.5199,28.0385 51.0619,27.8215 51.5639,27.6025 C52.7609,27.0805 54.0369,27.0295 55.2999,27.1585 C56.1489,27.2455 56.9889,27.5045 57.8109,27.7585 C58.1869,27.8745 58.4869,28.1635 58.4229,28.6665 C58.4069,28.7965 58.5309,28.9765 58.6379,29.0885 C59.5759,30.0715 59.9839,31.2645 59.9959,32.5945 C60.0149,34.7155 60.0009,36.8375 60.0009,38.9585" id="Fill-7" fill="#231F20" mask="url(#mask-4)"></path>
            <path d="M31.2894,8.5899 C31.9024,5.5559 35.4654,3.2049 39.2924,3.2729 C42.6524,3.3329 46.1554,5.8699 46.5944,8.5899 L31.2894,8.5899 Z" id="Fill-8" fill="#FEFEFE" mask="url(#mask-4)"></path>
            <polygon id="Fill-9" fill="#FEFEFE" mask="url(#mask-4)" points="10.084 40.1081 12.031 40.1081 12.031 22.9851 10.084 22.9851"></polygon>
            <path d="M26.6903,25.0684 C23.4883,26.2254 20.3543,26.2344 17.1213,25.0754 C17.6693,24.2514 18.2633,23.5124 18.6833,22.6864 C19.1943,21.6814 19.9203,21.3834 20.9993,21.4864 C21.9943,21.5824 23.0053,21.5204 24.0083,21.4994 C24.3483,21.4924 24.5613,21.5854 24.7413,21.8894 C25.3573,22.9294 26.0033,23.9514 26.6903,25.0684" id="Fill-10" fill="#FEFEFE" mask="url(#mask-4)"></path>
        </g>
    </g>
</svg>