<?xml version="1.0" encoding="UTF-8"?>
<svg width="54px" height="53px" viewBox="0 0 54 53" version="1.1" xmlns="http://www.w3.org/2000/svg" xmlns:xlink="http://www.w3.org/1999/xlink">
    <!-- Generator: sketchtool 48.2 (47327) - http://www.bohemiancoding.com/sketch -->
    <title>3A9C4950-840B-4351-A1E3-512D41052884</title>
    <desc>Created with sketchtool.</desc>
    <defs>
        <polygon id="path-1" points="0.328441472 0.0795082752 37.4543917 0.0795082752 37.4543917 47 0.328441472 47"></polygon>
        <polygon id="path-3" points="0 0.234 8.1674 0.234 8.1674 13.54 0 13.54"></polygon>
        <polygon id="path-5" points="0.0787 0.234 7.9097 0.234 7.9097 13.5427 0.0787 13.5427"></polygon>
    </defs>
    <g id="industry-focus-copy-5" stroke="none" stroke-width="1" fill="none" fill-rule="evenodd" transform="translate(-394.000000, -1049.000000)">
        <g id="consumer2" transform="translate(394.000000, 1048.000000)">
            <g id="Group-3" transform="translate(8.000000, 6.766100)">
                <mask id="mask-2" fill="white">
                    <use xlink:href="#path-1"></use>
                </mask>
                <g id="Clip-2"></g>
                <path d="M36.8978,4.7621 C37.8248,3.4991 37.5708,1.6451 36.3078,0.6361 C35.0438,-0.2909 33.1908,-0.0369 32.1808,1.2261 L22.4078,15.4621 C22.4078,15.4621 22.4078,15.5481 22.3228,15.5481 L15.4988,15.5481 L15.4988,15.4621 L5.8138,1.3941 C4.8868,0.1311 3.0328,-0.2049 1.6878,0.8041 C0.4238,1.7311 0.1708,3.5841 1.0968,4.8481 L10.6988,18.8301 C10.9528,19.4201 11.5408,22.8731 12.0478,26.4951 L9.9428,24.8101 C8.0898,23.3781 5.2268,24.2201 4.6368,26.5781 L0.4238,42.8361 C0.0018,44.6041 1.0148,46.4581 2.7828,46.8801 C4.6368,47.3021 6.4048,46.2061 6.8268,44.5211 L9.7748,32.9801 C13.3968,34.8341 13.3138,34.9161 13.7328,34.9161 C24.5158,34.9161 24.0938,35.0021 24.4298,34.8311 L27.8008,33.0631 L30.6638,44.5181 C31.0858,46.2861 32.9398,47.3811 34.7078,46.8771 C36.4758,46.3721 37.5708,44.6011 37.0658,42.8331 L32.9398,26.5751 C32.3498,24.2171 29.4858,23.2901 27.6328,24.8071 L25.5278,26.4921 C26.1178,22.8701 26.7088,19.4171 26.8768,18.8271 L36.8978,4.7621 Z" id="Fill-1" fill="#020303" mask="url(#mask-2)"></path>
            </g>
            <path d="M21.7333,14.8133 C21.7333,17.6763 24.0913,20.0353 26.9553,20.0353 C29.8183,20.0353 32.1763,17.6763 32.1763,14.8133 C32.1763,11.9503 29.8183,9.5923 26.9553,9.5923 C24.0913,9.5923 21.7333,11.9503 21.7333,14.8133" id="Fill-4" fill="#020303"></path>
            <g id="Group-8" transform="translate(0.000000, 0.766100)">
                <mask id="mask-4" fill="white">
                    <use xlink:href="#path-3"></use>
                </mask>
                <g id="Clip-7"></g>
                <path d="M5.8944,1.075 C5.8944,0.57 5.5584,0.234 5.0534,0.234 L0.8414,0.234 C0.4184,0.234 -0.0006,0.57 -0.0006,1.075 L-0.0006,12.699 C-0.0006,13.203 0.4214,13.54 0.8414,13.54 L5.0534,13.54 C5.5584,13.54 5.8944,13.203 5.8944,12.699 L5.8944,7.731 L7.1584,7.731 C7.3264,7.057 7.6624,6.55 8.1674,6.045 L5.8944,6.045 L5.8944,1.075 Z" id="Fill-6" fill="#020303" mask="url(#mask-4)"></path>
            </g>
            <path d="M16.0897,8.4969 L37.8227,8.4969 C38.6637,7.2339 38.7497,7.1479 39.0037,6.8109 L14.9087,6.8109 C15.1627,7.1479 15.3307,7.4019 16.0897,8.4969" id="Fill-9" fill="#020303"></path>
            <g id="Group-13" transform="translate(46.000000, 0.766100)">
                <mask id="mask-6" fill="white">
                    <use xlink:href="#path-5"></use>
                </mask>
                <g id="Clip-12"></g>
                <path d="M7.0687,0.2337 L2.8567,0.2337 C2.4337,0.2337 2.0147,0.5697 2.0147,1.0747 L2.0147,6.0457 L0.0787,6.0457 C0.5007,6.5497 0.7517,7.1397 0.9207,7.7307 L2.0147,7.7307 L2.0147,12.7017 C2.0147,13.2057 2.4367,13.5427 2.8567,13.5427 L7.0687,13.5427 C7.4907,13.5427 7.9097,13.2057 7.9097,12.7017 L7.9097,1.0747 C7.9097,0.6557 7.4907,0.2337 7.0687,0.2337" id="Fill-11" fill="#020303" mask="url(#mask-6)"></path>
            </g>
        </g>
    </g>
</svg>