<?xml version="1.0" encoding="UTF-8"?>
<svg width="75px" height="45px" viewBox="0 0 75 45" version="1.1" xmlns="http://www.w3.org/2000/svg" xmlns:xlink="http://www.w3.org/1999/xlink">
    <!-- Generator: sketchtool 48.2 (47327) - http://www.bohemiancoding.com/sketch -->
    <title>74E01A94-DEE5-44E2-A06D-BE80BBC3A213</title>
    <desc>Created with sketchtool.</desc>
    <defs>
        <polygon id="path-1" points="0.650882371 0.734731158 18.277 0.734731158 18.277 22.4911803 0.650882371 22.4911803"></polygon>
        <polygon id="path-3" points="0.0100479216 0.8546 5.30961465 0.8546 5.30961465 7 0.0100479216 7"></polygon>
    </defs>
    <g id="industry-focus-copy-3" stroke="none" stroke-width="1" fill="none" fill-rule="evenodd" transform="translate(-195.000000, -1059.000000)">
        <g id="dist1" transform="translate(195.000000, 1058.000000)">
            <g id="Group-3" transform="translate(56.000000, 0.265500)">
                <mask id="mask-2" fill="white">
                    <use xlink:href="#path-1"></use>
                </mask>
                <g id="Clip-2"></g>
                <path d="M17.9931,16.9437 L8.3001,1.5897 C7.7571,0.7277 6.6161,0.4767 5.7601,1.0247 L1.4961,3.7557 C0.6471,4.2987 0.3961,5.4287 0.9341,6.2817 L10.6301,21.6357 C11.1731,22.4987 12.3111,22.7487 13.1701,22.2017 L17.4331,19.4697 C18.2811,18.9267 18.5321,17.8007 17.9931,16.9437" id="Fill-1" fill="#020303" mask="url(#mask-2)"></path>
            </g>
            <path d="M25.2636,33.6033 L25.9846,32.5443 C26.3036,32.0803 26.4126,31.5193 26.3036,30.9673 C26.1946,30.4153 25.8706,29.9413 25.4006,29.6353 C25.0536,29.4123 24.6616,29.3023 24.2746,29.3023 C23.6086,29.3023 22.9516,29.6223 22.5506,30.2063 L20.4526,33.2783 C20.4346,33.3113 20.4216,33.3473 20.3986,33.3793 C19.6226,34.5243 18.7066,35.8743 17.9266,37.0053 C17.8956,37.0553 17.8496,37.0913 17.8126,37.1423 L17.2746,37.9263 C16.6366,38.8613 16.8736,40.1463 17.7946,40.7943 C18.2596,41.1223 18.8166,41.2463 19.3676,41.1413 C19.9196,41.0403 20.3986,40.7303 20.7136,40.2653 L21.0776,39.7323 C21.1376,39.6223 21.1826,39.5083 21.2566,39.4073 L25.2036,33.6663 C25.2276,33.6443 25.2446,33.6253 25.2636,33.6033" id="Fill-4" fill="#020303"></path>
            <path d="M56.5468,9.2151 C56.2288,8.7131 55.5978,8.5091 55.0468,8.7321 L53.3918,9.3971 C52.8128,9.6311 52.1788,9.6841 51.5668,9.5571 L45.9308,8.3711 C42.9758,7.7511 39.9258,7.7151 36.9568,8.2671 L31.6528,9.2511 C30.3118,9.5021 29.1088,10.2361 28.2738,11.3221 L23.7548,17.2051 C23.5268,17.5011 23.4268,17.8701 23.4768,18.2401 C23.5268,18.6141 23.7188,18.9421 24.0198,19.1661 C24.4478,19.4891 25.0308,19.5401 25.5108,19.2881 L35.1188,14.2681 C36.1268,13.7431 37.3348,13.7981 38.2868,14.4131 L58.9548,27.8071 C59.1828,27.9531 59.3918,28.1261 59.5838,28.3091 L64.4998,23.6621 C64.9288,23.2561 65.0108,22.6091 64.6948,22.1111 L56.5468,9.2151 Z" id="Fill-6" fill="#020303"></path>
            <g id="Group-10" transform="translate(28.000000, 38.265500)">
                <mask id="mask-4" fill="white">
                    <use xlink:href="#path-3"></use>
                </mask>
                <g id="Clip-9"></g>
                <path d="M4.6972,1.2426 C4.3872,0.9886 4.0172,0.8546 3.6302,0.8546 C3.5522,0.8546 3.4702,0.8596 3.3922,0.8736 C2.9682,0.9326 2.5982,1.1466 2.3302,1.4756 L0.1552,4.6366 C-0.0038,4.9956 -0.0358,5.3976 0.0772,5.7846 C0.2232,6.2776 0.5792,6.6746 1.0532,6.8706 C1.7922,7.1756 2.6272,6.9296 3.0822,6.2726 L5.0082,3.5136 C5.5092,2.7976 5.3722,1.7996 4.6972,1.2426" id="Fill-8" fill="#020303" mask="url(#mask-4)"></path>
            </g>
            <path d="M28.8895,38.7419 L30.0785,37.0139 C30.6915,36.1249 30.5125,34.8979 29.6725,34.2229 C29.2995,33.9169 28.8445,33.7589 28.3735,33.7589 C28.2735,33.7589 28.1685,33.7669 28.0685,33.7809 C27.5175,33.8629 27.0375,34.1539 26.7085,34.5969 L22.5235,40.7349 C22.3355,41.1509 22.2855,41.6109 22.4005,42.0669 C22.5415,42.6509 22.9075,43.1249 23.4355,43.4069 C24.3735,43.9089 25.5345,43.6309 26.1345,42.7559 L26.7235,41.8979 C26.7785,41.8019 26.8195,41.6969 26.8825,41.6059 L28.8065,38.8429 C28.8265,38.8109 28.8625,38.7779 28.8895,38.7419" id="Fill-11" fill="#020303"></path>
            <path d="M57.997,29.2849 L37.33,15.8909 C36.911,15.6169 36.368,15.5899 35.926,15.8269 L26.459,20.7749 C25.41,21.3219 24.125,21.3409 23.135,20.6879 C22.19,20.0639 21.657,19.0149 21.717,17.8529 C21.753,17.1999 22.026,16.5799 22.424,16.0589 L26.249,11.0809 L22.118,10.4229 C21.785,10.3679 21.461,10.2639 21.159,10.1089 L20.267,9.6429 C19.185,9.0829 17.858,9.4429 17.211,10.4689 L10.393,21.2669 C9.874,22.0929 9.92,23.1519 10.508,23.9309 L14.083,28.6419 C14.187,28.7789 14.379,28.7789 14.497,28.6549 C15.706,27.3689 17.676,27.0679 19.222,28.0219 C19.778,28.3629 20.216,28.8149 20.526,29.3439 C20.631,29.5219 20.877,29.5439 20.991,29.3759 L21.01,29.3479 C22.113,27.7299 24.266,27.0679 26.003,27.9719 C27.06,28.5179 27.781,29.4809 28.015,30.6299 C28.087,30.9989 28.101,31.3689 28.068,31.7329 C28.051,31.8979 28.173,32.0349 28.343,32.0299 C29.218,32.0249 30.079,32.3069 30.768,32.8649 C32.031,33.8859 32.478,35.5869 31.981,37.0689 C31.927,37.2329 32.022,37.3969 32.196,37.4239 C33.399,37.6299 34.48,38.4729 34.904,39.7919 C35.242,40.8309 35.005,41.9759 34.38,42.8739 L33.929,43.5209 C33.814,43.6849 33.91,43.9139 34.11,43.9449 L39.46,44.7619 C40.637,44.9449 41.804,44.7799 42.853,44.3239 C43.523,44.0319 43.518,43.0749 42.866,42.7419 L38.005,40.2749 C37.572,40.0559 37.404,39.5269 37.622,39.0979 C37.842,38.6699 38.37,38.4959 38.799,38.7149 L45.566,42.1489 C46.756,42.7559 48.197,42.3639 48.918,41.2369 C49.231,40.8129 49.337,40.3519 49.246,39.8959 C49.155,39.4399 48.89,39.0529 48.489,38.8109 L46.925,37.8569 L40.609,34.4149 C40.185,34.1819 40.025,33.6539 40.258,33.2279 C40.49,32.8049 41.019,32.6449 41.444,32.8779 L50.181,37.6389 C51.458,38.3359 53.081,37.9259 53.884,36.7129 C54.143,36.3159 54.23,35.8429 54.126,35.3809 C54.02,34.9209 53.738,34.5289 53.332,34.2869 L52.698,33.9079 L43.313,28.2899 C42.898,28.0439 42.761,27.5059 43.012,27.0919 C43.259,26.6759 43.797,26.5389 44.212,26.7899 L53.154,32.1389 L53.597,32.4029 L55.261,33.3979 C56.424,34.0959 58.065,33.7899 58.768,32.6319 C59.092,32.0979 59.197,31.4689 59.068,30.8529 C58.932,30.2019 58.554,29.6449 57.997,29.2849" id="Fill-13" fill="#020303"></path>
            <path d="M19.2587,30.8308 C19.1397,30.2828 18.8167,29.8218 18.3377,29.5268 C17.9907,29.3118 17.6117,29.2118 17.2377,29.2118 C16.5947,29.2118 15.9707,29.5178 15.5777,30.0728 L13.0797,33.6488 C12.4467,34.5558 12.6587,35.8188 13.5677,36.4618 L13.6497,36.5218 C14.0867,36.8308 14.6297,36.9548 15.1727,36.8588 C15.6517,36.7728 16.0667,36.5168 16.3717,36.1468 L19.0077,32.2898 C19.2717,31.8518 19.3667,31.3408 19.2587,30.8308" id="Fill-15" fill="#020303"></path>
            <path d="M16.6903,4.5862 L12.5083,1.9472 C11.6523,1.4042 10.5203,1.6632 9.9783,2.5162 L0.2843,17.8752 C-0.2587,18.7322 0.0023,19.8672 0.8533,20.4062 L5.0353,23.0462 C5.8923,23.5892 7.0233,23.3292 7.5663,22.4772 L17.2613,7.1172 C17.8043,6.2602 17.5483,5.1292 16.6903,4.5862" id="Fill-17" fill="#020303"></path>
        </g>
    </g>
</svg>