<?xml version="1.0" encoding="UTF-8"?>
<svg width="53px" height="53px" viewBox="0 0 53 53" version="1.1" xmlns="http://www.w3.org/2000/svg" xmlns:xlink="http://www.w3.org/1999/xlink">
    <!-- Generator: sketchtool 48.2 (47327) - http://www.bohemiancoding.com/sketch -->
    <title>7C2314FC-4287-4C0A-9331-F52AF7504ED7</title>
    <desc>Created with sketchtool.</desc>
    <defs>
        <polygon id="path-1" points="0.0002 -7.10542736e-15 52.974 -7.10542736e-15 52.974 52.974 0.0002 52.974"></polygon>
    </defs>
    <g id="industry-focus-copy-5" stroke="none" stroke-width="1" fill="none" fill-rule="evenodd" transform="translate(-488.000000, -1387.000000)">
        <g id="consumer8" transform="translate(488.000000, 1387.000000)">
            <mask id="mask-2" fill="white">
                <use xlink:href="#path-1"></use>
            </mask>
            <g id="Clip-2"></g>
            <path d="M46.2522,31.542 C46.2872,31.4 46.4172,31.3 46.5652,31.3 L52.9742,31.296 L52.9742,21.678 L46.5652,21.678 C46.4172,21.678 46.2872,21.577 46.2522,21.436 C45.7732,19.558 45.0282,17.759 44.0332,16.089 C43.9592,15.963 43.9782,15.802 44.0812,15.695 L48.6132,11.16 L41.8112,4.357 L37.2752,8.893 C37.1692,8.996 37.0112,9.019 36.8812,8.94 C35.2122,7.946 33.4122,7.2 31.5352,6.722 C31.3942,6.687 31.2932,6.557 31.2932,6.409 L31.3002,-7.10542736e-15 L21.6782,-7.10542736e-15 L21.6782,6.409 C21.6782,6.557 21.5762,6.687 21.4362,6.722 C19.5582,7.2 17.7592,7.946 16.0892,8.94 C15.9632,9.019 15.8022,8.996 15.6942,8.893 L11.1602,4.357 L4.3562,11.16 L8.8932,15.695 C8.9962,15.798 9.0192,15.963 8.9402,16.089 C7.9492,17.759 7.2032,19.558 6.7222,21.436 C6.6872,21.577 6.5572,21.678 6.4082,21.678 L0.0002,21.678 L0.0002,31.3 L6.4082,31.3 C6.5572,31.3 6.6872,31.4 6.7222,31.542 C7.1992,33.422 7.9452,35.218 8.9402,36.888 C9.0152,37.014 8.9962,37.176 8.8932,37.282 L4.3602,41.817 L11.1632,48.62 L15.6982,44.084 C15.8022,43.981 15.9662,43.962 16.0932,44.037 C17.7662,45.031 19.5622,45.777 21.4392,46.255 C21.5802,46.291 21.6812,46.42 21.6812,46.569 L21.6782,52.974 L31.2962,52.974 L31.2962,46.565 C31.2962,46.417 31.3972,46.288 31.5422,46.252 C33.4222,45.774 35.2182,45.028 36.8882,44.033 C37.0142,43.959 37.1762,43.978 37.2822,44.082 L41.8172,48.617 L48.6202,41.814 L44.0842,37.279 C43.9812,37.176 43.9592,37.014 44.0362,36.885 C45.0282,35.215 45.7732,33.416 46.2522,31.542 M26.4862,35.658 C21.4292,35.658 17.3162,31.545 17.3162,26.487 C17.3162,21.429 21.4292,17.316 26.4862,17.316 C31.5452,17.316 35.6572,21.429 35.6572,26.487 C35.6572,31.545 31.5452,35.658 26.4862,35.658" id="Fill-1" fill="#020303" mask="url(#mask-2)"></path>
        </g>
    </g>
</svg>