<?xml version="1.0" encoding="UTF-8"?>
<svg width="57px" height="116px" viewBox="0 0 57 116" version="1.1" xmlns="http://www.w3.org/2000/svg" xmlns:xlink="http://www.w3.org/1999/xlink">
    <!-- Generator: sketchtool 48.2 (47327) - http://www.bohemiancoding.com/sketch -->
    <title>5C0349DE-AB2D-4D48-95B9-B5EACFA669F8</title>
    <desc>Created with sketchtool.</desc>
    <defs>
        <polygon id="path-1" points="8.34856415e-05 0.294390781 56.485 0.294390781 56.485 36.89 8.34856415e-05 36.89"></polygon>
        <polygon id="path-3" points="0.038155149 0.267 18.029 0.267 18.029 21.2706 0.038155149 21.2706"></polygon>
    </defs>
    <g id="industry-focus-copy-5" stroke="none" stroke-width="1" fill="none" fill-rule="evenodd" transform="translate(-578.000000, -1046.000000)">
        <g id="consumer3" transform="translate(578.000000, 1045.000000)">
            <path d="M12.0106,116.733 C15.2276,116.733 15.2336,111.733 12.0106,111.733 C8.7936,111.733 8.7876,116.733 12.0106,116.733" id="Fill-1" fill="#FEFEFE"></path>
            <path d="M51.1322,39.4322 C50.5742,39.4322 50.0192,39.2742 49.4612,39.0362 L37.9232,33.3872 C37.7642,33.3072 37.6832,33.3072 37.5252,33.3072 L29.8062,33.3072 C29.0092,33.3072 28.2152,33.0672 27.5772,32.5902 L18.9032,26.2252 C17.3122,25.0312 16.7552,22.8832 17.7892,21.1322 C18.9842,19.2222 21.4512,18.7452 23.2802,20.0182 L30.8382,25.5902 C30.9962,25.6702 31.1572,25.7482 31.3972,25.7482 L38.6382,25.7482 C39.1962,25.7482 39.7512,25.9062 40.3092,26.1442 L52.8032,32.2702 C54.6322,33.2252 55.4292,35.4542 54.5542,37.2842 C53.8392,38.6392 52.4862,39.4322 51.1322,39.4322" id="Fill-3" fill="#020303"></path>
            <path d="M16.8377,16.1192 C16.8377,18.4052 14.9847,20.2572 12.6987,20.2572 C10.4137,20.2572 8.5637,18.4052 8.5637,16.1192 C8.5637,13.8332 10.4137,11.9802 12.6987,11.9802 C14.9847,11.9802 16.8377,13.8332 16.8377,16.1192" id="Fill-5" fill="#020303"></path>
            <g id="Group-9" transform="translate(0.000000, 19.733000)">
                <mask id="mask-2" fill="white">
                    <use xlink:href="#path-1"></use>
                </mask>
                <g id="Clip-8"></g>
                <path d="M55.2704,27.022 L39.5964,19.303 C39.2764,19.144 38.9604,19.064 38.5614,19.064 L28.6934,19.064 C28.4544,19.064 28.2964,18.983 28.1344,18.906 L3.6274,0.763 C2.5934,-0.033 1.0824,0.206 0.3674,1.321 C-0.3496,2.357 0.0474,3.708 1.0024,4.425 L26.2254,23.125 C26.6224,23.444 27.1004,23.602 27.5774,23.602 L28.2924,23.602 C28.6904,23.602 28.9284,23.921 28.9284,24.237 L28.9284,33.548 C28.9284,33.944 28.6094,34.264 28.2124,34.264 L27.1004,34.264 C26.7024,34.264 26.3834,34.583 26.3834,34.98 L26.3834,36.173 C26.3834,36.57 26.7024,36.89 27.1004,36.89 L38.3224,36.89 C38.7194,36.89 39.0384,36.57 39.0384,36.173 L39.0384,34.98 C39.0384,34.583 38.7194,34.264 38.3224,34.264 L37.2084,34.264 C36.8124,34.264 36.4924,33.944 36.4924,33.548 L36.4924,24.315 C36.4924,23.918 36.8124,23.68 37.1284,23.68 L37.6864,23.68 C37.7664,23.68 37.9244,23.68 38.0054,23.76 L53.0444,31.161 C53.3634,31.319 53.6804,31.399 54.0804,31.399 C54.8764,31.399 55.7504,30.921 56.1474,30.125 C56.8614,28.932 56.3844,27.577 55.2704,27.022" id="Fill-7" fill="#020303" mask="url(#mask-2)"></path>
            </g>
            <g id="Group-12" transform="translate(23.000000, 0.733000)">
                <mask id="mask-4" fill="white">
                    <use xlink:href="#path-3"></use>
                </mask>
                <g id="Clip-11"></g>
                <path d="M16.516,0.2666 L7.683,0.2666 C7.206,0.2666 6.728,0.5046 6.489,0.9026 L4.739,3.2896 C4.658,3.4476 4.499,3.4476 4.341,3.4476 C2.828,2.9706 1.157,3.4476 0.124,4.7216 C-0.033,4.8796 0.044,5.1186 0.205,5.2796 L6.173,9.3376 C6.331,9.4956 6.57,9.4176 6.731,9.2566 C7.447,7.9826 7.367,6.3916 6.573,5.1996 C6.492,5.0406 6.492,4.8796 6.573,4.8016 L8.006,2.8116 C8.086,2.7306 8.163,2.6536 8.325,2.6536 L15.405,2.6536 C15.644,2.6536 15.803,2.8116 15.803,3.0506 L15.803,20.1576 C15.803,20.7926 16.28,21.2706 16.915,21.2706 C17.551,21.2706 18.029,20.7926 18.029,20.1576 L18.029,1.6996 C18.029,0.9046 17.312,0.2666 16.516,0.2666" id="Fill-10" fill="#020303" mask="url(#mask-4)"></path>
            </g>
        </g>
    </g>
</svg>