<?xml version="1.0" encoding="UTF-8"?>
<svg width="40px" height="60px" viewBox="0 0 40 60" version="1.1" xmlns="http://www.w3.org/2000/svg" xmlns:xlink="http://www.w3.org/1999/xlink">
    <!-- Generator: sketchtool 48.2 (47327) - http://www.bohemiancoding.com/sketch -->
    <title>E99CAF6B-84BF-4886-8CAD-7D9566983241</title>
    <desc>Created with sketchtool.</desc>
    <defs>
        <polygon id="path-1" points="0 0.614 39.5878 0.614 39.5878 59.9996 0 59.9996"></polygon>
    </defs>
    <g id="industry-focus-copy-5" stroke="none" stroke-width="1" fill="none" fill-rule="evenodd" transform="translate(-212.000000, -1211.000000)">
        <g id="consumer4" transform="translate(212.000000, 1210.000000)">
            <path d="M30.6796,23.5688 L12.5116,23.5688 L11.5876,20.1908 L7.3906,18.4568 C6.8966,18.2558 6.3166,18.4908 6.1146,18.9898 C5.9066,19.4888 6.1476,20.0648 6.6416,20.2658 L9.9536,21.6318 L13.9396,36.2488 L28.0656,36.2488 C28.6086,36.2488 29.0456,35.8108 29.0456,35.2698 C29.0456,34.7278 28.6036,34.2888 28.0656,34.2888 L15.4366,34.2888 L15.0026,32.7018 L28.4326,32.7018 L30.6796,23.5688 Z" id="Fill-1" fill="#020303"></path>
            <path d="M16.4355,37.2295 C14.7485,37.2295 13.3735,38.6005 13.3735,40.2915 C13.3735,41.9775 14.7435,43.3535 16.4355,43.3535 C18.1215,43.3535 19.4925,41.9775 19.4925,40.2915 C19.4925,38.6005 18.1215,37.2295 16.4355,37.2295 M16.4355,41.3935 C15.8275,41.3935 15.3335,40.8985 15.3335,40.2915 C15.3335,39.6835 15.8275,39.1885 16.4355,39.1885 C17.0385,39.1885 17.5375,39.6835 17.5375,40.2915 C17.5325,40.8985 17.0385,41.3935 16.4355,41.3935" id="Fill-3" fill="#020303"></path>
            <path d="M25.9882,37.2295 C24.3012,37.2295 22.9262,38.6005 22.9262,40.2915 C22.9262,41.9775 24.2972,43.3535 25.9882,43.3535 C27.6702,43.3535 29.0512,41.9775 29.0512,40.2915 C29.0512,38.6005 27.6702,37.2295 25.9882,37.2295 M25.9882,41.3935 C25.3812,41.3935 24.8862,40.8985 24.8862,40.2915 C24.8862,39.6835 25.3812,39.1885 25.9882,39.1885 C26.5922,39.1885 27.0862,39.6835 27.0862,40.2915 C27.0862,40.8985 26.5922,41.3935 25.9882,41.3935" id="Fill-5" fill="#020303"></path>
            <g id="Group-9" transform="translate(0.000000, 0.386400)">
                <mask id="mask-2" fill="white">
                    <use xlink:href="#path-1"></use>
                </mask>
                <g id="Clip-8"></g>
                <path d="M33.3358,0.6136 L6.2518,0.6136 C2.8028,0.6136 -0.0002,3.4166 -0.0002,6.8636 L-0.0002,53.7486 C-0.0002,57.1976 2.8028,59.9996 6.2518,59.9996 L33.3358,59.9996 C36.7848,59.9996 39.5878,57.1976 39.5878,53.7486 L39.5878,6.8636 C39.5878,3.4166 36.7848,0.6136 33.3358,0.6136 Z M19.7938,57.4796 C18.4698,57.4796 17.3968,56.4066 17.3968,55.0876 C17.3968,53.7626 18.4698,52.6936 19.7938,52.6936 C21.1178,52.6936 22.1908,53.7676 22.1908,55.0876 C22.1908,56.4096 21.1178,57.4796 19.7938,57.4796 Z M35.4238,48.7516 C35.4238,49.8956 34.4858,50.8326 33.3408,50.8326 L6.2518,50.8326 C5.1008,50.8326 4.1688,49.8956 4.1688,48.7516 L4.1638,6.8636 C4.1638,5.7196 5.1008,4.7826 6.2468,4.7826 L10.8728,4.7826 L12.6718,8.3806 L26.9108,8.3806 L28.7118,4.7826 L33.3358,4.7826 C34.4858,4.7826 35.4188,5.7196 35.4188,6.8636 L35.4238,48.7516 Z" id="Fill-7" fill="#020303" mask="url(#mask-2)"></path>
            </g>
        </g>
    </g>
</svg>