<?xml version="1.0" encoding="UTF-8"?>
<svg width="60px" height="60px" viewBox="0 0 60 60" version="1.1" xmlns="http://www.w3.org/2000/svg" xmlns:xlink="http://www.w3.org/1999/xlink">
    <!-- Generator: sketchtool 48.2 (47327) - http://www.bohemiancoding.com/sketch -->
    <title>FB68F278-78F1-459B-8E34-7F11E7F9243E</title>
    <desc>Created with sketchtool.</desc>
    <defs>
        <polygon id="path-1" points="0 0 59.999 0 59.999 60 0 60"></polygon>
    </defs>
    <g id="industry-focus-copy-3" stroke="none" stroke-width="1" fill="none" fill-rule="evenodd" transform="translate(-572.000000, -1045.000000)">
        <g id="dist3" transform="translate(572.000000, 1045.000000)">
            <path d="M29.4262,27.7892 L47.9882,23.3202 L44.6132,9.3092 C44.5592,9.0662 44.4062,8.8592 44.1912,8.7272 C43.9772,8.5942 43.7232,8.5592 43.4802,8.6132 L26.7462,12.6452 C26.2382,12.7662 25.9302,13.2732 26.0512,13.7772 L29.4262,27.7892 Z M33.0782,15.5552 L39.1682,14.0902 C39.6722,13.9732 40.1762,14.2772 40.3012,14.7812 C40.4222,15.2852 40.1132,15.7932 39.6092,15.9142 L33.5202,17.3792 C33.4452,17.3952 33.3712,17.4062 33.3012,17.4062 C32.8792,17.4062 32.4962,17.1172 32.3912,16.6882 C32.2662,16.1802 32.5742,15.6762 33.0782,15.5552 Z" id="Fill-1" fill="#020303"></path>
            <g id="Group-5">
                <mask id="mask-2" fill="white">
                    <use xlink:href="#path-1"></use>
                </mask>
                <g id="Clip-4"></g>
                <path d="M45.0268,33.422 L36.6638,35.445 C36.5898,35.453 36.5158,35.465 36.4378,35.465 C36.0158,35.465 35.6328,35.176 35.5268,34.754 C35.4058,34.246 35.7148,33.742 36.2228,33.621 L44.5938,31.605 C45.0898,31.484 45.5978,31.793 45.7188,32.301 C45.8438,32.793 45.5348,33.301 45.0268,33.422 M27.8038,57.212 C25.8478,57.212 24.2618,55.626 24.2618,53.67 C24.2618,51.714 25.8478,50.128 27.8038,50.128 C29.7598,50.128 31.3458,51.714 31.3458,53.67 C31.3458,55.626 29.7598,57.212 27.8038,57.212 M59.9728,45.469 C59.8518,44.961 59.3438,44.652 58.8398,44.773 L56.6088,45.309 L51.7888,25.293 C51.6678,24.797 51.1598,24.488 50.6518,24.609 L27.6368,30.148 C27.3948,30.203 27.1878,30.363 27.0548,30.57 C26.9218,30.785 26.8868,31.039 26.9408,31.281 L31.0268,48.242 C30.0818,47.688 28.9918,47.359 27.8398,47.359 C27.6128,47.359 27.3978,47.379 27.1838,47.398 L15.2068,2.926 C15.0938,2.512 14.7298,2.23 14.3088,2.23 L8.4408,2.23 L8.4378,0.938 C8.4378,0.422 8.0158,0 7.4998,0 L0.9378,0 C0.4138,0 -0.0002,0.422 -0.0002,0.938 L-0.0002,5.242 C-0.0002,5.758 0.4138,6.18 0.9378,6.18 L7.4998,6.18 C8.0158,6.18 8.4378,5.758 8.4378,5.242 L8.4378,4.105 L13.5858,4.105 L25.3788,47.867 C23.0738,48.844 21.5268,51.109 21.5268,53.68 C21.5268,57.168 24.3548,60 27.8438,60 C31.3318,60 34.1638,57.168 34.1638,53.68 C34.1638,53.344 34.1368,53.004 34.0778,52.668 L40.3978,51.148 L56.1408,47.359 C56.1598,47.359 56.1678,47.34 56.1798,47.34 L59.2808,46.59 C59.7848,46.473 60.0938,45.965 59.9728,45.469" id="Fill-3" fill="#020303" mask="url(#mask-2)"></path>
            </g>
        </g>
    </g>
</svg>