<?xml version="1.0" encoding="UTF-8"?>
<svg width="71px" height="48px" viewBox="0 0 71 48" version="1.1" xmlns="http://www.w3.org/2000/svg" xmlns:xlink="http://www.w3.org/1999/xlink">
    <!-- Generator: sketchtool 48.2 (47327) - http://www.bohemiancoding.com/sketch -->
    <title>245F6530-92B1-454F-8165-896B58BA4EB4</title>
    <desc>Created with sketchtool.</desc>
    <defs></defs>
    <g id="industry-focus-copy-3" stroke="none" stroke-width="1" fill="none" fill-rule="evenodd" transform="translate(-385.000000, -1057.000000)">
        <path d="M385,1058.0778 C385,1057.4858 385.484,1056.9998 386.077,1056.9998 L428.663,1056.9998 C429.255,1056.9998 429.739,1057.4858 429.739,1058.0778 L429.739,1087.2148 C429.739,1087.8098 429.255,1088.2918 428.663,1088.2918 L386.077,1088.2918 C385.481,1088.2918 385,1087.8098 385,1087.2148 L385,1058.0778 Z M402.828,1094.4368 C402.828,1095.0298 403.313,1095.5148 403.905,1095.5148 L428.663,1095.5148 C429.255,1095.5148 429.739,1095.0298 429.739,1094.4368 L429.739,1091.8738 C429.739,1091.2818 429.255,1090.7958 428.663,1090.7958 L403.905,1090.7958 C403.313,1090.7958 402.828,1091.2818 402.828,1091.8738 L402.828,1094.4368 Z M439.856,1091.4918 C436.279,1091.4918 433.38,1094.3928 433.38,1097.9678 C433.38,1101.5408 436.279,1104.4438 439.856,1104.4438 C443.431,1104.4438 446.333,1101.5408 446.333,1097.9678 C446.329,1094.3928 443.435,1091.4918 439.856,1091.4918 Z M394.127,1091.4918 C390.553,1091.4918 387.65,1094.3928 387.65,1097.9678 C387.65,1101.5408 390.549,1104.4438 394.127,1104.4438 C397.701,1104.4438 400.604,1101.5408 400.604,1097.9678 C400.604,1094.3928 397.705,1091.4918 394.127,1091.4918 Z M455.607,1082.2648 L455.607,1096.5618 C455.607,1097.1578 455.122,1097.6438 454.529,1097.6438 L451.18,1097.6438 C450.588,1097.6438 449.894,1097.2658 449.684,1096.6468 C449.305,1095.5218 448.539,1088.2508 440.489,1088.2508 L433.564,1088.2508 C432.973,1088.2508 432.483,1087.7658 432.483,1087.1698 L432.483,1065.9478 C432.483,1065.3508 432.969,1064.8698 433.564,1064.8698 L444.917,1064.8698 C445.509,1064.8698 446.245,1065.2888 446.546,1065.8008 L455.063,1080.2598 C455.361,1080.7678 455.607,1081.6718 455.607,1082.2648 Z M449.128,1076.6488 L444.52,1068.7968 C444.115,1068.1138 443.876,1067.8458 443.354,1067.8458 L436.878,1067.8458 C436.356,1067.8458 435.933,1068.2678 435.933,1068.7898 L435.933,1077.0718 C435.933,1077.5938 436.356,1078.0168 436.878,1078.0168 L448.433,1078.0168 C449.172,1078.0198 449.613,1077.4758 449.128,1076.6488 Z" id="dist2" fill="#020303"></path>
    </g>
</svg>