<?xml version="1.0" encoding="UTF-8"?>
<svg width="27px" height="20px" viewBox="0 0 27 20" version="1.1" xmlns="http://www.w3.org/2000/svg" xmlns:xlink="http://www.w3.org/1999/xlink">
    <!-- Generator: sketchtool 48.2 (47327) - http://www.bohemiancoding.com/sketch -->
    <title>6D9AFB8F-5947-4070-B5BC-48E49D5605E0</title>
    <desc>Created with sketchtool.</desc>
    <defs></defs>
    <g id="approach-tab1" stroke="none" stroke-width="1" fill="none" fill-rule="evenodd" transform="translate(-706.000000, -582.000000)">
        <path d="M714.526316,582 L714.526316,588.195652 L710.262721,588.195652 L710.262721,594.391304 L706,594.391304 L706,602 L733,602 L733,594.391304 L728.736842,594.391304 L728.736842,588.195652 L724.473247,588.195652 L724.473247,582 L714.526316,582 Z M715.947368,588.195652 L723.052194,588.195652 L723.052194,583.413043 L715.947368,583.413043 L715.947368,588.195652 Z M720.210526,594.391739 L727.315789,594.391739 L727.315789,589.608696 L720.210526,589.608696 L720.210526,594.391739 Z M711.683773,594.391739 L718.789036,594.391739 L718.789036,589.608696 L711.683773,589.608696 L711.683773,594.391739 Z M724.473247,600.586957 L731.57851,600.586957 L731.57851,595.804348 L724.473247,595.804348 L724.473247,600.586957 Z M715.947368,600.586957 L723.052194,600.586957 L723.052194,595.804348 L715.947368,595.804348 L715.947368,600.586957 Z M707.421053,600.586957 L714.526316,600.586957 L714.526316,595.804348 L707.421053,595.804348 L707.421053,600.586957 Z" id="investment-green" fill="#93B191"></path>
    </g>
</svg>