<?xml version="1.0" encoding="UTF-8"?>
<svg width="20px" height="20px" viewBox="0 0 20 20" version="1.1" xmlns="http://www.w3.org/2000/svg" xmlns:xlink="http://www.w3.org/1999/xlink">
    <!-- Generator: sketchtool 48.2 (47327) - http://www.bohemiancoding.com/sketch -->
    <title>73B01B3A-21B9-4FD2-B250-A15FBA438E31</title>
    <desc>Created with sketchtool.</desc>
    <defs>
        <polygon id="path-1" points="0 0 19.9993333 0 19.9993333 19.9998889 0 19.9998889"></polygon>
    </defs>
    <g id="our-team-copy-13" stroke="none" stroke-width="1" fill="none" fill-rule="evenodd" transform="translate(-1258.000000, -621.000000)">
        <g id="unselectedlinkedin1" transform="translate(1258.000000, 621.000000)">
            <mask id="mask-2" fill="white">
                <use xlink:href="#path-1"></use>
            </mask>
            <g id="Clip-2"></g>
            <path d="M17.0427778,17.0422222 L14.0766667,17.0422222 L14.0766667,12.4011111 C14.0766667,11.2938889 14.0577778,9.87 12.5355556,9.87 C10.9916667,9.87 10.7566667,11.0766667 10.7566667,12.3216667 L10.7566667,17.0422222 L7.79388889,17.0422222 L7.79388889,7.49777778 L10.6372222,7.49777778 L10.6372222,8.80277778 L10.6777778,8.80277778 C11.0733333,8.05222222 12.0411111,7.26111111 13.4844444,7.26111111 C16.4877778,7.26111111 17.0427778,9.23722222 17.0427778,11.8077778 L17.0427778,17.0422222 Z M4.44888889,6.19388889 C3.49611111,6.19388889 2.72777778,5.42333333 2.72777778,4.47333333 C2.72777778,3.52388889 3.49611111,2.75333333 4.44888889,2.75333333 C5.39777778,2.75333333 6.16833333,3.52388889 6.16833333,4.47333333 C6.16833333,5.42333333 5.39777778,6.19388889 4.44888889,6.19388889 Z M2.96333333,17.0422222 L5.93277778,17.0422222 L5.93277778,7.49777778 L2.96333333,7.49777778 L2.96333333,17.0422222 Z M18.52,0 L1.47555556,0 C0.661666667,0 0,0.645555556 0,1.44222222 L0,18.5572222 C0,19.3533333 0.661666667,20 1.47555556,20 L18.52,20 C19.3355556,20 19.9994444,19.3533333 19.9994444,18.5572222 L19.9994444,1.44222222 C19.9994444,0.645555556 19.3355556,0 18.52,0 Z" id="Fill-1" fill="#D6D6D6" mask="url(#mask-2)"></path>
        </g>
    </g>
</svg>