<?xml version="1.0" encoding="UTF-8"?>
<svg width="47px" height="68px" viewBox="0 0 47 68" version="1.1" xmlns="http://www.w3.org/2000/svg" xmlns:xlink="http://www.w3.org/1999/xlink">
    <!-- Generator: sketchtool 48.2 (47327) - http://www.bohemiancoding.com/sketch -->
    <title>0DAD1BF1-EF12-4EDF-A846-52ED4E9A8FE5</title>
    <desc>Created with sketchtool.</desc>
    <defs></defs>
    <g id="contact-copy-3" stroke="none" stroke-width="1" fill="none" fill-rule="evenodd" transform="translate(-419.000000, -975.000000)">
        <path d="M442.5,975 C429.518053,975 419,985.652326 419,998.8 C419,1003.93979 420.63928,1009.8301 423.402582,1013.76201 L442.5,1043 L461.597418,1013.76201 C464.356741,1009.83413 466,1004.01434 466,998.8 C466,985.652326 455.481947,975 442.5,975 Z M442.5,1007.86667 C437.577185,1007.86667 433.547619,1003.78566 433.547619,998.8 C433.547619,993.814341 437.577185,989.733333 442.5,989.733333 C447.422815,989.733333 451.452381,993.814341 451.452381,998.8 C451.452381,1003.78566 447.422815,1007.86667 442.5,1007.86667 Z" id="mapmarker" fill="#003968"></path>
    </g>
</svg>