<?xml version="1.0" encoding="utf-8"?>
<!-- Generator: Adobe Illustrator 22.1.0, SVG Export Plug-In . SVG Version: 6.00 Build 0)  -->
<svg version="1.1" id="Layer_1" xmlns="http://www.w3.org/2000/svg" xmlns:xlink="http://www.w3.org/1999/xlink" x="0px" y="0px"
	 viewBox="0 0 27 27" style="enable-background:new 0 0 27 27;" xml:space="preserve">
<style type="text/css">
	.st0{fill:#93B191;}
</style>
<title>30BDB5D6-29B0-4043-80D3-4F596D0030EE</title>
<desc>Created with sketchtool.</desc>
<g id="approach-tab1" transform="translate(-477.000000, -579.000000)">
	<g id="partnericon-black" transform="translate(477.000000, 579.000000)">
		<path id="Fill-1" class="st0" d="M13.5,7c1.9,0,3.4-1.5,3.4-3.4s-1.5-3.4-3.4-3.4s-3.4,1.5-3.4,3.4S11.6,7,13.5,7z M13.5,1.6
			c1.1,0,1.9,0.9,1.9,1.9s-0.9,1.9-1.9,1.9s-1.9-0.9-1.9-1.9S12.4,1.6,13.5,1.6z"/>
		<path id="Fill-2" class="st0" d="M24.3,20.3v-2.2c0-0.4-0.3-0.7-0.7-0.7h-9.3v-2.9h5.3c0.4,0,0.7-0.3,0.7-0.7
			c0-2.8-1.8-5.4-4.4-6.4c-0.4-0.1-0.7,0-0.9,0.4l-1.4,2.8l-1.4-2.8c-0.2-0.3-0.6-0.5-0.9-0.4c-2.7,1-4.4,3.5-4.4,6.4
			c0,0.4,0.3,0.7,0.7,0.7h5.3v2.9H3.4c-0.4,0-0.7,0.3-0.7,0.7v2.2c-1.5,0.3-2.6,1.7-2.6,3.2c0,1.8,1.5,3.3,3.3,3.3
			c1.8,0,3.3-1.5,3.3-3.3c0-1.6-1.1-2.9-2.6-3.2v-1.5h8.6v1.5c-1.5,0.3-2.6,1.7-2.6,3.2c0,1.8,1.5,3.3,3.3,3.3s3.3-1.5,3.3-3.3
			c0-1.6-1.1-2.9-2.6-3.2v-1.5h8.6v1.5c-1.5,0.3-2.6,1.7-2.6,3.2c0,1.8,1.5,3.3,3.3,3.3c1.8,0,3.3-1.5,3.3-3.3
			C26.9,22,25.8,20.6,24.3,20.3z M5.3,23.6c0,1-0.8,1.9-1.9,1.9s-1.9-0.8-1.9-1.9c0-1,0.8-1.9,1.9-1.9C4.5,21.7,5.3,22.5,5.3,23.6z
			 M15.4,23.6c0,1-0.8,1.9-1.9,1.9c-1,0-1.9-0.8-1.9-1.9c0-1,0.8-1.9,1.9-1.9C14.5,21.7,15.4,22.5,15.4,23.6z M8.3,13
			c0.2-1.7,1.3-3.2,2.8-3.9l1.8,3.5c0.4,0.6,1.1,0.5,1.3,0L15.9,9c1.5,0.8,2.6,2.3,2.8,3.9H8.3z M23.6,25.4c-1,0-1.9-0.8-1.9-1.9
			c0-1,0.8-1.9,1.9-1.9c1,0,1.9,0.8,1.9,1.9C25.4,24.6,24.6,25.4,23.6,25.4z"/>
	</g>
</g>
</svg>
