<?xml version="1.0" encoding="UTF-8"?>
<svg width="27px" height="27px" viewBox="0 0 27 27" version="1.1" xmlns="http://www.w3.org/2000/svg" xmlns:xlink="http://www.w3.org/1999/xlink">
    <!-- Generator: sketchtool 48.2 (47327) - http://www.bohemiancoding.com/sketch -->
    <title>30BDB5D6-29B0-4043-80D3-4F596D0030EE</title>
    <desc>Created with sketchtool.</desc>
    <defs></defs>
    <g id="approach-tab1" stroke="none" stroke-width="1" fill="none" fill-rule="evenodd" transform="translate(-477.000000, -579.000000)">
        <g id="partnericon-black" transform="translate(477.000000, 579.000000)" fill="#000000">
            <path d="M13.5,6.97212 C15.39288,6.97212 16.9326,5.4324 16.9326,3.53952 C16.9326,1.64664 15.39288,0.10548 13.5,0.10548 C11.60712,0.10548 10.0674,1.6452 10.0674,3.53808 C10.0674,5.43096 11.60712,6.97212 13.5,6.97212 Z M13.5,1.59192 C14.57028,1.59192 15.44616,2.4624 15.44616,3.53808 C15.44616,4.61376 14.57028,5.48424 13.5,5.48424 C12.42972,5.48424 11.55384,4.61376 11.55384,3.53808 C11.55384,2.4624 12.42972,1.59192 13.5,1.59192 Z" id="Fill-1"></path>
            <path d="M24.3,20.3076 L24.3,18.06624 C24.3,17.65548 23.96808,17.32212 23.55624,17.32212 L14.24376,17.32212 L14.24376,14.45328 L19.5174,14.45328 C19.9278,14.45328 20.26116,14.12172 20.26116,13.70952 C20.26116,10.8828 18.47808,8.325 15.8202,7.3548 C15.4674,7.22232 15.07212,7.38144 14.89788,7.71876 L13.5,10.5102 L12.09672,7.7202 C11.92788,7.38288 11.5326,7.2252 11.17404,7.35624 C8.51616,8.32644 6.73308,10.87884 6.73308,13.71096 C6.73308,14.12172 7.065,14.45472 7.4772,14.45472 L12.75048,14.45472 L12.75048,17.32356 L3.44376,17.32356 C3.03336,17.32356 2.7,17.65548 2.7,18.06768 L2.7,20.30904 C1.21788,20.64528 0.10548,21.97404 0.10548,23.55624 C0.10548,25.39692 1.60308,26.89452 3.44376,26.89452 C5.2848,26.89452 6.7824,25.39692 6.7824,23.55624 C6.7824,21.97404 5.67,20.64528 4.18788,20.3076 L4.18788,18.81 L12.75768,18.81 L12.75768,20.3076 C11.2752,20.64528 10.1628,21.97404 10.1628,23.55624 C10.1628,25.39692 11.66076,26.89452 13.50144,26.89452 C15.34212,26.89452 16.83972,25.39692 16.83972,23.55624 C16.83972,21.97404 15.72768,20.64528 14.2452,20.3076 L14.2452,18.81 L22.815,18.81 L22.815,20.3076 C21.33288,20.64528 20.22048,21.97404 20.22048,23.55624 C20.22048,25.39692 21.71808,26.89452 23.55876,26.89452 C25.3998,26.89452 26.8974,25.39692 26.8974,23.55624 C26.89452,21.97404 25.78212,20.64528 24.3,20.3076 Z M5.28876,23.55624 C5.28876,24.57432 4.46076,25.40664 3.43836,25.40664 C2.41596,25.40664 1.5876,24.57828 1.5876,23.55624 C1.5876,22.5378 2.41596,21.70548 3.43836,21.70548 C4.4622,21.70548 5.28876,22.53924 5.28876,23.55624 Z M15.35076,23.55624 C15.35076,24.57432 14.5224,25.40664 13.5,25.40664 C12.47616,25.40664 11.64924,24.57828 11.64924,23.55624 C11.64924,22.5378 12.4776,21.70548 13.5,21.70548 C14.52384,21.70548 15.35076,22.53924 15.35076,23.55624 Z M8.28,12.96288 C8.52192,11.28096 9.5724,9.79884 11.08548,9.01836 L12.83616,12.50424 C13.2102,13.13172 13.93884,12.96828 14.16528,12.50424 L15.91596,9.01836 C17.42904,9.79884 18.47808,11.28096 18.72144,12.96288 L8.28,12.96288 Z M23.55624,25.40808 C22.5378,25.40808 21.70548,24.57972 21.70548,23.55768 C21.70548,22.53924 22.53384,21.70692 23.55624,21.70692 C24.57432,21.70692 25.40664,22.53528 25.40664,23.55768 C25.40808,24.57972 24.57972,25.40808 23.55624,25.40808 Z" id="Fill-2"></path>
        </g>
    </g>
</svg>