<?xml version="1.0" encoding="UTF-8"?>
<svg width="19px" height="20px" viewBox="0 0 19 20" version="1.1" xmlns="http://www.w3.org/2000/svg" xmlns:xlink="http://www.w3.org/1999/xlink">
    <!-- Generator: sketchtool 48.2 (47327) - http://www.bohemiancoding.com/sketch -->
    <title>6023CD6F-B02F-49F6-B868-3CE7DC721EDA</title>
    <desc>Created with sketchtool.</desc>
    <defs>
        <polygon id="path-1" points="0 0 18.8176928 0 18.8176928 19.2752552 0 19.2752552"></polygon>
    </defs>
    <g id="news-list-copy-6" stroke="none" stroke-width="1" fill="none" fill-rule="evenodd" transform="translate(-1097.000000, -380.000000)">
        <g id="Group" transform="translate(1097.000000, 380.000000)">
            <g id="Page-1">
                <mask id="mask-2" fill="white">
                    <use xlink:href="#path-1"></use>
                </mask>
                <g id="Clip-2"></g>
                <path d="M16.0337043,16.4246433 L13.2455339,16.4246433 L13.2455339,11.9516884 C13.2455339,10.8851184 13.225148,9.51281965 11.7949954,9.51281965 C10.342366,9.51281965 10.1207341,10.6746957 10.1207341,11.874587 L10.1207341,16.4246433 L7.33308655,16.4246433 L7.33308655,7.2265475 L10.0088728,7.2265475 L10.0088728,8.48319404 L10.0470311,8.48319404 C10.4192053,7.75983253 11.3297776,6.99738486 12.6877953,6.99738486 C15.5115104,6.99738486 16.0337043,8.90189775 16.0337043,11.3793172 L16.0337043,16.4246433 Z M4.18580994,5.96883011 C3.28935098,5.96883011 2.56643393,5.22565781 2.56643393,4.31061353 C2.56643393,3.3966401 3.28935098,2.65346779 4.18580994,2.65346779 C5.0791326,2.65346779 5.8036178,3.3966401 5.8036178,4.31061353 C5.8036178,5.22565781 5.0791326,5.96883011 4.18580994,5.96883011 Z M2.78806577,16.4246433 L5.58198596,16.4246433 L5.58198596,7.2265475 L2.78806577,7.2265475 L2.78806577,16.4246433 Z M17.4241304,-0.000107085346 L1.38770801,-0.000107085346 C0.62245092,-0.000107085346 -0.000104543319,0.622058776 -0.000104543319,1.38878986 L-0.000104543319,17.884752 C-0.000104543319,18.6520185 0.62245092,19.2752552 1.38770801,19.2752552 L17.4241304,19.2752552 C18.1909556,19.2752552 18.8176928,18.6520185 18.8176928,17.884752 L18.8176928,1.38878986 C18.8176928,0.622058776 18.1909556,-0.000107085346 17.4241304,-0.000107085346 Z" id="Fill-1" fill="#C8C8C8" mask="url(#mask-2)"></path>
            </g>
        </g>
    </g>
</svg>